<svg width="1004" height="621" xmlns="http://www.w3.org/2000/svg" xmlns:xlink="http://www.w3.org/1999/xlink" xmlns:undefined="http://www.inkscape.org/namespaces/inkscape">
 <defs>
  <linearGradient id="imagebot_47">
   <stop stop-color="#ffffff" offset="0" id="imagebot_52"/>
   <stop stop-color="#17f9f9" offset="1" id="imagebot_51"/>
  </linearGradient>
  <linearGradient id="imagebot_48">
   <stop stop-color="#66edd6" id="imagebot_50" offset="0"/>
   <stop stop-color="#f9f9f9" id="imagebot_49" offset="1"/>
  </linearGradient>
  <linearGradient y2="-0.41088" x2="0.19945" y1="0.84544" x1="0.17492" id="imagebot_19" xlink:href="#imagebot_48"/>
  <linearGradient y2="0.66521" x2="-0.04994" y1="0.1125" x1="-0.07294" id="imagebot_26" xlink:href="#imagebot_47"/>
  <filter height="2.5033" y="-0.75165" width="1.18715" x="-0.09358" id="imagebot_22">
   <feGaussianBlur id="imagebot_46" stdDeviation="27.29337" />
  </filter>
  <clipPath id="imagebot_32" clipPathUnits="userSpaceOnUse">
   <rect fill="#ffffff" transform="matrix(-0.99993044,0.01179505,0.00889868,0.99996041,0,0)" id="imagebot_45" width="531.63855" height="160.52921" x="-606.47931" y="908.88464"/>
  </clipPath>
  <clipPath id="imagebot_21" clipPathUnits="userSpaceOnUse">
   <rect opacity="0.42788" fill="#000000" transform="matrix(0.99993044,-0.01179505,0.00889868,0.99996041,0,0)" y="808.87604" x="75.19141" height="233.73633" width="531.63855" id="imagebot_44"/>
  </clipPath>
  <filter height="1.76347" y="-0.38173" width="1.57598" x="-0.28799" id="imagebot_29">
   <feGaussianBlur id="imagebot_43" stdDeviation="47.39858" />
  </filter>
  <clipPath id="imagebot_28" clipPathUnits="userSpaceOnUse">
   <rect opacity="0.42788" fill="#000000" y="0" x="18.30482" height="400" width="620.41382" id="imagebot_42"/>
  </clipPath>
  <filter height="1.41089" y="-0.20544" width="1.30998" x="-0.15499" id="imagebot_12">
   <feGaussianBlur id="imagebot_41" stdDeviation="25.50914" />
  </filter>
  <filter height="1.77683" y="-0.38841" width="1.58606" x="-0.29303" id="imagebot_9">
   <feGaussianBlur id="imagebot_40" stdDeviation="48.22807" />
  </filter>
  <clipPath id="imagebot_8" clipPathUnits="userSpaceOnUse">
   <rect opacity="0.42788" fill="#000000" id="imagebot_39" width="755.72913" height="520.73138" x="-398.84259" y="60.21948"/>
  </clipPath>
  <clipPath id="imagebot_11" clipPathUnits="userSpaceOnUse">
   <rect opacity="0.42788" fill="#000000" y="28.9756" x="205.95096" height="520.73138" width="1096.6919" id="imagebot_38"/>
  </clipPath>
 </defs>
 <title/>
 <metadata id="imagebot_37">image/svg+xmlSnowscape2012 December 17Viscious-SpeedPublic DomainSnow Landscape Tree WinterSimple snowscape</metadata>
 <g id="imagebot_2" label="Layer 1">
  <g transform="translate(119.766 101.246) matrix(1 0 0 1 0 -652.362)" label="Layer 1" id="imagebot_3">
   <rect fill="#ffffff" id="imagebot_36" width="700" height="400" x="0" y="652.36218"/>
   <path fill="#000000" d="M601.65601,652.362L607.84399,662.737L599.40601,660.92499L600.09399,662.112L609.40601,665.362L610.93799,667.89301L599.68799,676.237L599.875,677.39301L612.56299,670.67499L618.56299,680.67499L621.875,725.60199L615.75,720.94598L616.375,723.789L622.09399,730.383L624.15601,771.58398L618.125,764.73999L614.5,743.17798L613.31299,742.83398L614.56299,760.70898L584,734.77197L583.15601,735.86499L596.75,749.95898L584.81299,745.95898L584.875,747.02197L602,755.17798L616.43799,769.55298L604.46899,771.14697L604.65601,772.48999L618.875,772.80298L624.34399,779.92798C624.34399,779.92798 624.14697,822.40399 623.96899,831.20599L592.78998,805.30298L593.41498,808.11499L624.18799,836.64301C624.07001,843.086 623.67999,839.60199 623.68799,844.45599C623.70801,856.086 624.40601,879.362 624.40601,879.362L625.56299,910.33099L635.06299,909.70599L633.75,877.67499L632.71899,866.737C632.56097,858.21301 632.96301,824.935 632.09399,806.83502L644.35101,784.91602L644.19501,781.72803L630.5,798.55402C629.40198,776.63397 628.01501,741.56403 626.59399,715.758L639.875,697.758L649.53101,698.85199L650.56299,698.10199L641.34399,695.789L649.40601,684.883L649.31299,682.97699L626.125,707.414C624.53302,678.617 623.04303,675.56299 621.78101,652.362L617.18799,652.362L618.15601,672.737L604.18799,652.362L601.65601,652.362z" id="imagebot_35"/>
   <path fill="#000000" d="M 100.75 652.362 L 119.344 673.425 L 100 672.05 L 100.531 673.331 L 122.813 677.55 L 140.719 700.3 L 141.125 706.956 L 140.813 709.456 L 115.531 697.737 L 114.688 698.893 L 140.313 713.206 L 139.594 718.925 L 143.563 766.175 L 121.656 752.206 L 120.313 755.55 L 144.531 777.956 L 144.562 778.175 L 141.562 786.675 L 142.969 814.487 L 112.156 772.862 L 111.844 776.893 L 143.75 829.362 L 147.75 908.331 L 159.625 906.518 L 154.375 775.018 L 149.188 740.456 L 186.219 690.831 L 186.063 687.331 L 157.281 721.987 L 161.844 700.956 L 160.781 700.112 L 157.281 710.425 L 155.25 705.237 L 154.656 707.018 L 155.969 714.206 L 151.438 727.55 L 151.594 727.612 L 147.656 731.487 L 146.438 724.3 L 145.79 697.35 L 153.29 690.6 L 153.821 688.162 L 145.603 693.162 L 143.563 672.487 C 151.475 663.143 155.835 656.327 143.281 668.768 L 142.719 661.393 L 142.031 652.362 L 142 652.362 L 137.688 652.362 L 140 689.018 L 117.375 665.737 L 117.469 652.362 L 114.656 652.362 L 113.844 662.112 L 107.031 655.112 L 106.281 652.362 L 100.75 652.362 Z" id="imagebot_34"/>
   <path fill="#000000" d="M 151.501 669.686 L 166 702.55 L 162.844 748.8 L 163.063 923.893 L 173.094 925.643 L 173.688 820.456 L 198.656 748.925 L 198.281 743.612 L 173.813 800.643 L 174.031 763.581 L 171.219 752.425 L 171.219 752.143 L 190.813 721.018 L 189.563 716.643 L 171.625 736.456 L 173.281 673.425 L 172.25 670.956 L 184.625 652.362 L 182.406 652.362 L 171.688 666.018 L 171.594 657.612 L 171.656 652.362 L 167.688 652.362 L 167.75 680.956 L 166.969 690.55 L 163.531 685.612 L 163.656 685.518 L 160.612 673.53 L 161.487 663.905 L 160.894 661.592 L 159.394 668.561 L 156.769 657.842 L 155.456 657.842 L 158.531 678.456 L 152.994 669.509 L 151.501 669.686 Z" id="imagebot_33"/>
   <path fill="#217867" filter="url(#imagebot_22)" transform="matrix(-1.3166374,0.02939053,0.0117168,2.4915956,798.54164,-1612.3589)" d="M163.377,972.44397C105.53,972.54401 54.8727,932.276 4.24946,935.01703L0,1052.35999L700,1052.35999L705.76099,969.229C598.62,951.099 454.47,978.21503 303.88101,972.87C255.341,971.14801 208.825,972.36603 163.377,972.44397L163.377,972.44397z" id="imagebot_31" clip-path="url(#imagebot_32)"/>
   <path opacity="0.44231" fill="#ffffff" d="M142.86182,966.45691C131.30315,966.45691 121.93262,957.83679 121.93262,947.22321C121.93262,936.60956 131.30315,928.00818 142.86182,928.00818C154.42049,928.00818 163.79102,936.60956 163.79102,947.22321C163.79102,957.83679 154.42049,966.45691 142.86182,966.45691zM258.74411,951.2536C244.34261,951.2536 232.67007,940.53857 232.67007,927.31458C232.67007,914.09052 244.34261,903.37549 258.74411,903.37549C273.1456,903.37549 284.81815,914.09052 284.81815,927.31458C284.81815,940.53857 273.1456,951.2536 258.74411,951.2536zM462.7883,950.09131C457.009,950.09131 452.33401,945.78125 452.33401,940.47449C452.33401,935.16766 457.009,930.87634 462.7883,930.87634C468.56766,930.87634 473.26321,935.16766 473.26321,940.47449C473.26321,945.78125 468.56766,950.09131 462.7883,950.09131zM418.95432,927.6145C404.55283,927.6145 392.88028,916.88068 392.88028,903.65668C392.88028,890.43268 404.55283,879.71759 418.95432,879.71759C433.3558,879.71759 445.02835,890.43268 445.02835,903.65668C445.02835,916.88068 433.3558,927.6145 418.95432,927.6145zM74.41491,925.87109C60.01341,925.87109 48.34088,915.13733 48.34088,901.91327C48.34088,888.68927 60.01341,877.97424 74.41491,877.97424C88.8164,877.97424 100.48894,888.68927 100.48894,901.91327C100.48894,915.13733 88.8164,925.87109 74.41491,925.87109zM309.88376,919.68481C298.3251,919.68481 288.95459,911.08344 288.95459,900.46985C288.95459,893.52332 292.98322,887.44287 298.99728,884.06677C293.43018,880.61322 289.77774,874.76593 289.77774,868.13239C289.77774,857.5188 299.14828,848.91742 310.70694,848.91742C322.26563,848.91742 331.63614,857.5188 331.63614,868.13239C331.63614,869.60529 331.44278,871.02875 331.10107,872.40656C334.15088,865.2583 341.72382,860.2027 350.58972,860.2027C362.14838,860.2027 371.51892,868.80408 371.51892,879.41766C371.51892,890.03131 362.14838,898.63269 350.58972,898.63269C339.03104,898.63269 329.66052,890.03131 329.66052,879.41766C329.66052,877.94202 329.8526,876.50507 330.19559,875.12482C328.51883,879.05963 325.47385,882.3598 321.59341,884.53546C327.16052,887.98901 330.81296,893.8363 330.81296,900.46985C330.81296,911.08344 321.44244,919.68481 309.88376,919.68481zM188.13637,917.86639C167.56738,917.86639 150.88776,902.56036 150.88776,883.6731C150.88776,864.78589 167.56738,849.4798 188.13637,849.4798C208.70535,849.4798 225.38498,864.78589 225.38498,883.6731C225.38498,902.56036 208.70535,917.86639 188.13637,917.86639zM478.53152,887.04742C472.75217,887.04742 468.05661,882.73743 468.05661,877.4306C468.05661,872.12378 472.75217,867.83246 478.53152,867.83246C484.31082,867.83246 488.98581,872.12378 488.98581,877.4306C488.98581,882.73743 484.31082,887.04742 478.53152,887.04742zM259.36148,880.39252C253.58215,880.39252 248.8866,876.1012 248.8866,870.79437C248.8866,865.48755 253.58215,861.17749 259.36148,861.17749C265.14081,861.17749 269.8158,865.48755 269.8158,870.79437C269.8158,876.1012 265.14081,880.39252 259.36148,880.39252zM37.24862,877.95551C16.67963,877.95551 0,862.64941 0,843.76221C0,824.875 16.67963,809.55017 37.24862,809.55017C57.8176,809.55017 74.47664,824.875 74.47664,843.76221C74.47664,862.64948 57.8176,877.95551 37.24862,877.95551zM404.67224,860.87762C393.11356,860.87762 383.74304,852.25751 383.74304,841.64386C383.74304,831.03021 393.11356,822.42889 404.67224,822.42889C416.2309,822.42889 425.60144,831.03027 425.60144,841.64386C425.60144,852.25751 416.2309,860.87762 404.67224,860.87762zM159.94266,852.47925C148.384,852.47925 139.01347,843.87793 139.01347,833.26428C139.01347,822.65063 148.384,814.04932 159.94266,814.04932C171.50133,814.04932 180.87186,822.65063 180.87186,833.26428C180.87186,843.87793 171.50133,852.47925 159.94266,852.47925zM295.72519,831.59583C275.15619,831.59583 258.47656,816.28979 258.47656,797.40253C258.47656,778.51532 275.15619,763.20923 295.72519,763.20923C316.29416,763.20923 332.97379,778.51532 332.97379,797.40253C332.97379,816.28979 316.29416,831.59583 295.72519,831.59583zM475.46518,828.09027C463.90652,828.09027 454.53598,819.48889 454.53598,808.87531C454.53598,798.26166 463.90652,789.64154 475.46518,789.64154C487.02386,789.64154 496.39438,798.26166 496.39438,808.87531C496.39438,819.48889 487.02386,828.09027 475.46518,828.09027zM367.52652,819.59821C355.96786,819.59821 346.59735,810.99683 346.59735,800.38324C346.59735,789.76959 355.96786,781.16821 367.52652,781.16821C379.08521,781.16821 388.45572,789.76959 388.45572,800.38324C388.45572,810.99683 379.08521,819.59821 367.52652,819.59821zM56.07871,790.99127C41.67722,790.99127 30.00468,780.27625 30.00468,767.05225C30.00468,753.82819 41.67722,743.11316 56.07871,743.11316C70.48021,743.11316 82.15274,753.82819 82.15274,767.05225C82.15274,780.27625 70.48021,790.99127 56.07871,790.99127zM414.03583,785.46112C408.2565,785.46112 403.56094,781.1698 403.56094,775.86298C403.56094,770.55615 408.2565,766.24615 414.03583,766.24615C419.81516,766.24615 424.49014,770.55615 424.49014,775.86298C424.49014,781.1698 419.81516,785.46112 414.03583,785.46112zM184.12338,756.83551C172.56471,756.83551 163.19418,748.23413 163.19418,737.62054C163.19418,727.0069 172.56471,718.40558 184.12338,718.40558C195.68205,718.40558 205.05258,727.0069 205.05258,737.62054C205.05258,748.23413 195.68205,756.83551 184.12338,756.83551zM122.57056,754.96088C108.16907,754.96088 96.49654,744.24585 96.49654,731.02179C96.49654,717.79779 108.16908,707.06403 122.57056,707.06403C136.97206,707.06403 148.66518,717.79779 148.66518,731.02179C148.66518,744.24585 136.97206,754.96088 122.57056,754.96088zM443.64951,747.70605C423.08054,747.70605 406.42148,732.38123 406.42148,713.49402C406.42148,694.60675 423.08054,679.30072 443.64951,679.30072C464.21848,679.30072 480.89813,694.60675 480.89813,713.49402C480.89813,732.38123 464.21848,747.70605 443.64951,747.70605zM249.93614,736.57074C238.37747,736.57074 229.00694,727.96936 229.00694,717.35577C229.00694,706.74213 238.37747,698.14075 249.93614,698.14075C261.49481,698.14075 270.86533,706.74213 270.86533,717.35577C270.86533,727.96936 261.49481,736.57074 249.93614,736.57074zM359.15073,728.28485C353.3714,728.28485 348.69641,723.99353 348.69641,718.68677C348.69641,713.37994 353.3714,709.06989 359.15073,709.06989C364.93005,709.06989 369.62561,713.37994 369.62561,718.68677C369.62561,723.99353 364.93005,728.28485 359.15073,728.28485zM314.37006,712.51923C302.8114,712.51923 293.44086,703.91785 293.44086,693.3042C293.44086,682.69061 302.8114,674.08923 314.37006,674.08923C325.92874,674.08923 335.29926,682.69061 335.29926,693.3042C335.29926,703.91785 325.92874,712.51923 314.37006,712.51923zM147.92433,703.97089C142.14499,703.97089 137.44943,699.67957 137.44943,694.37274C137.44943,689.06598 142.14499,684.75592 147.92433,684.75592C153.70366,684.75592 158.37863,689.06598 158.37863,694.37274C158.37863,699.67957 153.70366,703.97089 147.92433,703.97089zM86.33035,680.0506C80.55101,680.0506 75.87604,675.74054 75.87604,670.43365C75.87604,665.12683 80.55101,660.81683 86.33035,660.81683C92.10968,660.81683 96.80523,665.12683 96.80523,670.43365C96.80523,675.74054 92.10968,680.0506 86.33035,680.0506zM464.88739,671.57721C459.10806,671.57721 454.43307,667.28583 454.43307,661.979C454.43307,656.67224 459.10806,652.36218 464.88739,652.36218C470.66672,652.36218 475.36227,656.67224 475.36227,661.979C475.36227,667.28583 470.66672,671.57721 464.88739,671.57721z" id="imagebot_30"/>
   <path fill="#ffffff" filter="url(#imagebot_29)" id="imagebot_27" d="M556,53C556,135.29044 467.57623,202 358.5,202C249.42377,202 161,135.29044 161,53C161,-29.29043 249.42377,-96 358.5,-96C467.57623,-96 556,-29.29043 556,53z" transform="matrix(0.77563483,0,0,1.0546475,98.389747,652.36218)" clip-path="url(#imagebot_28)"/>
   <path fill="url(#imagebot_26)" id="imagebot_25" d="M536.6875,878.95361C594.53381,879.05322 649.37677,880.5752 700,883.31616L700,1052.36218L0,1052.36218L0,918.34906C107.14142,900.21857 244.81705,886.72156 395.40625,881.37726C443.94556,879.65466 491.23969,878.87537 536.6875,878.95361z"/>
   <path fill="#000000" d="M 485.938 652.362 L 485.656 723.925 L 467.531 710.737 L 466.781 711.518 L 485.656 730.956 L 485.469 845.425 L 485.438 857.237 L 468.906 828.956 L 468.063 830.237 L 485.406 864.706 L 485.344 890.362 L 457.094 843.143 L 457.094 847.112 L 472.625 875.143 L 460.094 871.8 L 461.031 873.55 L 474.781 879.05 L 476.844 882.768 L 459.375 893.55 L 459.531 895.237 L 479.125 886.862 L 485.313 901.643 L 485.188 957.487 L 455.438 924.456 L 454.063 926.425 L 485.188 969.55 L 485.094 1012.05 L 494.906 1012.05 C 494.899 1010.3 494.885 988.119 494.875 986.362 L 516.188 962.112 L 530.594 964.581 L 532.219 963.55 L 518.531 959.456 L 531.469 944.706 L 531.469 942.018 L 494.844 974.487 C 494.791 963.274 494.658 952.107 494.469 941.081 L 515.594 908.768 L 514.375 906.956 L 494.281 930.893 C 493.024 868.842 488.732 653.04 488.719 652.362 L 485.938 652.362 Z" id="imagebot_24"/>
   <path fill="#000000" d="M 467.188 652.362 L 482.5 674.268 L 469.688 677.8 L 471.406 678.8 L 484.281 676.768 L 495.531 692.893 L 471.094 705.612 L 471.281 707.518 L 498.844 697.612 L 506.125 708.05 L 505.875 717.581 L 488.781 711.3 L 487.531 712.737 L 505.75 722.393 L 504.719 732.237 L 493.188 726.362 L 494.063 729.456 L 504.719 737.675 L 505.438 789.331 L 504.281 798.643 L 499.906 795.925 L 500.094 795.831 L 495.75 787.706 L 500.563 774.612 L 499.625 772.362 L 493.719 782.893 L 478.75 753.112 L 477.344 754.268 L 495 793.8 L 448.969 744.3 L 448.969 748.8 L 502.813 810.3 L 498.125 855.175 L 500.094 995.206 L 516.375 996.768 L 516.375 924.487 L 556.125 854.8 L 555.438 849.643 L 516.375 905.268 L 516.375 869.362 L 511.719 858.581 L 513.219 853.3 L 542.375 826.362 L 541.094 823.643 L 512.25 843.081 L 514.344 781.956 L 512.969 774.612 L 546.875 754.518 L 545.625 753.081 L 512.031 769.831 L 511.438 766.643 L 511.563 758.05 L 534.344 727.55 L 564.344 720.643 L 565 718.956 L 538.781 722.018 L 581.906 670.706 L 580.625 669.675 L 557.906 693.675 L 559.344 681.237 L 557.75 682.456 L 554.25 697.612 L 545.469 707.081 L 539.469 664.956 L 538.063 666.112 L 540.906 711.987 L 511.719 743.456 L 512.875 652.362 L 507.156 652.362 L 507.094 674.487 L 506.469 696.393 L 498.344 686.331 L 499.875 658.268 L 498.25 657.643 L 493.563 680.393 L 470.875 652.362 L 467.188 652.362 Z" id="imagebot_23"/>
   <path fill="#37c8ab" filter="url(#imagebot_22)" id="imagebot_20" d="M166.52702,985.05164C108.68069,985.15125 50.62326,966.84222 0,969.58325L0,1052.36218L700,1052.36218L702.24213,915.17969C595.10071,897.04919 593.50336,983.04462 442.91418,977.70032C394.37485,975.97766 211.97485,984.97339 166.52702,985.05164z" transform="matrix(1.3166374,0.02018531,-0.0117168,1.7112182,-99.003335,-731.89173)" clip-path="url(#imagebot_21)"/>
   <path fill="url(#imagebot_19)" d="M163.3125,965.22064C105.46617,965.32025 50.62326,966.84222 0,969.58325L0,1052.36218L700,1052.36218L700,1004.61609C592.85858,986.4856 455.18295,972.98865 304.59375,967.64435C256.05444,965.92169 208.76033,965.1424 163.3125,965.22064z" id="imagebot_18"/>
   <path fill="#000000" d="M 40.5938 652.362 L 40.4063 697.268 L 39.75 719.175 L 30.9063 709.112 L 30.3438 687.05 L 28.5625 686.425 L 25.7188 703.175 L 0 673.925 L 0 678.956 L 13.7188 697.05 L 3.82813 696.768 L 3.82813 696.925 L 3.82813 697.831 L 15.6563 699.55 L 27.875 715.675 L 5.0625 719.393 L 5.28125 721.3 L 31.4375 720.393 L 39.375 730.831 L 39.0938 740.362 L 20.5625 734.081 L 19.1875 735.518 L 38.9375 745.175 L 37.8438 782.018 L 25.3125 776.143 L 26.25 779.237 L 37.8438 787.456 L 38.5938 839.112 L 37.3438 848.425 L 31.25 843.706 L 31.4688 843.612 L 23.7813 826.737 L 25.1563 817.393 L 24.1875 815.143 L 21.5625 821.925 L 13.125 798.893 L 11.5625 800.05 L 22.4063 836.831 L 0 819.487 L 0 828.081 L 35.7813 860.081 L 30.6875 904.956 L 32.8125 1010.99 L 50.5 1012.55 L 50.5 919.143 L 45.4375 908.362 L 48.3125 831.737 L 47.5313 826.893 L 83.625 804.3 L 82.25 802.862 L 45.8125 819.612 L 45.1563 816.425 L 45.25 807.831 L 70 777.331 L 102.563 770.425 L 103.281 768.737 L 74.8125 771.8 L 108.063 733.487 L 106.688 732.456 L 95.625 743.456 L 97.1563 731.018 L 95.4375 732.237 L 91.625 747.393 L 82.0938 756.862 L 76.6563 724.737 L 75.125 725.893 L 77.1563 761.768 L 45.4688 793.237 L 47.375 652.362 L 40.5938 652.362 Z" id="imagebot_17"/>
   <path fill="#000000" d="M 55 652.362 C 54.8731 686.819 54.63 729.504 54.4063 773.675 L 14.5938 741.206 L 14.5938 743.893 L 28.6563 758.643 L 13.8125 762.768 L 15.5625 763.768 L 31.1875 761.3 L 54.3438 785.581 C 54.1663 822.371 54.0034 858.746 54.0313 889.987 L 15.9063 858.237 L 15.9063 862.8 L 54.0625 907.518 C 54.1467 933.31 54.394 954.332 54.8438 966.456 L 54.0938 982.112 L 54.5938 1027.74 L 70.125 1027.74 L 69.4688 983.612 C 69.4688 983.612 68.6812 950.508 67.75 933.987 C 67.3614 927.092 66.3821 921.753 65.6563 912.612 L 88.25 890.643 L 89.0625 886.581 L 65.4063 902.018 C 64.3856 889.533 63.4688 879.05 63.4688 879.05 L 71.0313 869.893 L 112.688 873.612 L 112.906 871.675 L 75.5 863.55 L 95.8125 842.987 L 113.063 833.768 L 113.063 832.268 L 102.438 835.331 L 117.938 816.768 L 116.5 815.3 L 77.8125 850.8 L 78.3438 825.3 L 76.4688 825.893 L 72.3438 856.862 L 63.0625 867.143 L 62.875 805.925 L 71.6563 796.018 L 72.4375 791.925 L 62.8438 799.112 L 62.5313 700.831 L 71.4688 686.05 L 92.7188 694.425 L 92.9063 692.737 L 73.9063 681.956 L 76.1563 678.237 L 91.0938 672.737 L 92.0938 670.987 L 78.5 674.331 L 91.7188 652.362 L 88.4063 652.362 L 62.5313 689.55 L 62.4063 652.362 L 55 652.362 Z" id="imagebot_16"/>
   <path fill="#000000" d="M 641.688 652.362 L 653.688 665.706 L 629.015 667.977 L 629.265 669.727 L 657.219 670.05 L 665.156 679.643 C 665.156 679.643 664.584 689.293 663.969 700.768 L 654 693.706 L 654.844 697.425 L 663.688 706.831 C 663.256 715.232 662.835 723.841 662.656 730.175 C 662.228 745.351 662.344 775.706 662.344 775.706 L 662.437 778.925 L 633.149 736.858 L 633.306 742.233 L 650.25 772.331 L 635.25 760.768 L 633.437 762.362 L 654.344 779.3 L 654.344 779.143 L 662.781 793.175 L 664.312 852.987 L 663.75 856.487 L 655.797 852.648 L 649.91 830.86 L 647.91 831.61 L 649.297 847.023 L 606.599 806.401 L 606.255 809.838 L 639.516 844.132 L 610.431 842.804 L 609.306 844.523 L 644.864 849.802 L 662.937 870.675 L 663.031 884.112 L 665.312 891.862 L 665.531 901.143 L 610.062 884.3 L 609.719 887.925 L 665.844 913.081 L 666.344 931.081 L 663.969 935.05 L 667.844 1052.36 L 686.625 1052.36 L 679.156 876.456 L 700 858.425 L 700 847.112 L 678.781 862.143 L 676.5 773.987 L 675.375 759.675 C 675.474 748.543 675.154 729.212 674.563 705.55 L 700 657.05 L 700 652.362 L 699.281 652.362 L 674.125 689.487 C 673.807 677.876 673.43 665.268 673.031 652.362 L 664.844 652.362 L 665.219 668.706 L 656.438 659.518 L 655.281 652.362 L 651.156 652.362 L 651.25 654.05 L 649.219 652.362 L 641.688 652.362 Z" id="imagebot_15"/>
   <path fill="#000000" d="M 242.594 652.862 L 243.344 692.862 L 218.906 674.675 L 219.906 678.737 L 243.469 699.643 L 244.594 760.893 L 233.688 750.831 L 228.25 719.987 L 226.094 719.425 L 227.281 744.925 L 198.031 708.862 L 196.406 710.362 L 215.031 739.143 L 199.906 735.331 L 199.937 736.8 L 219.562 746.362 L 230.187 757.612 L 202.344 759.425 L 202.656 761.362 L 234.594 762.331 L 244.375 772.768 C 244.375 772.768 243.807 787.292 242.906 799.8 L 204.844 774.956 L 205.844 779.018 L 242.594 806.393 C 241.959 815.55 240.952 820.928 240.656 827.831 C 239.947 844.372 239.75 877.487 239.75 877.487 L 239.938 1052.36 L 257.75 1052.36 L 257.406 875.612 L 256.188 859.987 C 256.44 847.855 256.28 817.613 255.813 791.826 L 275.384 763.14 L 275.291 758.578 L 255.469 783.487 C 254.817 752.253 253.853 715.89 252.844 679.112 L 276.188 652.862 L 268.969 652.862 L 252.5 667.206 C 252.359 662.113 252.233 657.873 252.094 652.862 L 242.594 652.862 Z" id="imagebot_14"/>
   <path fill="#000000" d="M 305.938 652.362 L 307.125 654.112 C 308.045 679.893 309.002 700.941 309.906 713.05 L 309.5 728.675 L 312.813 824.737 L 228.344 777.862 L 228 780.581 L 267.063 808.831 L 222.875 812.925 L 223.938 814.925 L 276.25 815.112 L 313.344 840.331 L 316.688 1052.36 L 340.344 1052.36 L 336.406 903.331 L 333.188 899.143 L 332.5 879.518 L 400.781 849.237 L 400.125 845.3 L 332.063 866.487 L 331.688 856.393 L 334 847.862 L 333.188 833.206 L 365.375 805.206 L 417.219 792.737 L 415.719 790.925 L 374.188 796.706 L 417.688 754.893 L 417.5 748.956 L 351.844 803.362 L 353.094 781.862 L 350.531 781.143 L 344.125 809.8 L 331.156 817.8 L 330.219 814.05 L 327.938 748.862 L 337.5 733.143 L 337.5 733.331 L 379.281 718.331 L 376.875 716.643 L 342.125 725.518 L 372.469 675.643 L 372.281 669.768 L 327.375 733.331 L 327.25 729.831 C 327.25 729.831 325.286 696.794 323.688 680.3 C 323.02 673.416 321.908 664.045 320.781 654.925 L 323.25 652.362 L 305.938 652.362 Z" id="imagebot_13"/>
   <path opacity="0.70192" fill="#ffffff" filter="url(#imagebot_12)" transform="matrix(0.61005095,0,0,-0.76815037,-125.64058,1074.6198)" clip-path="url(#imagebot_11)" d="M542.052,53C492.41238,98.90007 471.37396,103.61335 413.44366,100.885C309.99332,96.01278 161,135.29044 161,53C161,-29.29043 249.42377,-96 358.5,-96C467.57623,-96 609.56372,-9.42578 542.052,53z" id="imagebot_10"/>
   <path opacity="0.79327" fill="#ffffff" filter="url(#imagebot_9)" transform="matrix(0.9262578,0,0,-0.76815037,369.43107,1098.6198)" clip-path="url(#imagebot_8)" d="M556,53C556,135.29044 467.57623,202 358.5,202C249.42377,202 86.5067,135.29044 86.5067,53C86.5067,-29.29043 249.42377,-96 358.5,-96C467.57623,-96 556,-29.29043 556,53z" id="imagebot_7"/>
   <path fill="#000000" d="M289.879,652.362L289.84799,668.56598L281.005,661.43597L281.72299,665.479L289.81699,675.263L289.63,720.91199L281.09799,710.78802L277.28601,680.20203L275.56699,679.58398L276.06699,704.77002L236.88,663.70502L235.567,665.15503L257.16101,692.45502L249.317,689.50702L249.317,690.95801L264.63,700.263L278.19199,717.362L236.255,712.16803L236.442,715.04999L281.59799,722.146L289.255,732.67102C289.255,732.67102 288.41299,732.77197 287.47299,745.10303L277.69199,737.263L278.44199,741.276L287.005,751.61499C286.336,760.64301 285.67499,780.151 285.31699,786.961C284.45999,803.27802 283.72299,835.94202 283.72299,835.94202L283.72299,839.39899L265.95999,818.89502L265.95999,822.948L271.72299,831.992L234.146,821.461L233.271,824.409L275.63,839.61499L275.63,839.42999L283.66101,854.73901L283.505,919.15198L282.84799,922.88702L277.56,919.75L274.435,881.633L272.40399,882.40503L271.21701,913.547L212.005,856.65198L212.005,862.51599L264.14301,916.70599L214.505,898.04102L213.34801,899.862L270.71701,926.68402L281.63,938.13397L281.34799,952.60901L283.41101,961.00403L283.38,970.97302L213.38,927.93597L212.942,931.82501L283.349,983.84399L283.31799,1003.22998L280.849,1007.41998L278.349,1052.35999L283.19299,1052.35999L291.849,1052.35999L297.505,1052.35999L297.69299,944.77002L326.724,919.12097L368.56799,917.88702L369.38,915.88098L333.91101,912.73297L364.099,886.03497L364.099,881.375L297.724,929.36798L297.91101,834.461L297.19299,819.02899C297.60699,807.05499 297.83401,786.26099 297.91101,760.78802L337.96701,684.763L337.96701,680.25702L297.94299,743.47302C297.966,716.073 297.86401,684.49597 297.724,652.362L289.88,652.362L289.879,652.362z" id="imagebot_6"/>
   <path opacity="0.44231" fill="#ffffff" d="M 433.844 652.362 C 432.421 654.034 431.563 656.196 431.563 658.55 C 431.563 663.857 435.914 668.143 441.281 668.143 C 446.649 668.143 451 663.857 451 658.55 C 451 656.196 450.137 654.034 448.719 652.362 L 433.844 652.362 Z M 616.531 652.362 C 610.501 656.716 606.594 663.757 606.594 671.706 C 606.594 684.93 617.437 695.643 630.813 695.643 C 644.188 695.643 655.031 684.93 655.031 671.706 C 655.031 663.757 651.093 656.716 645.063 652.362 L 616.531 652.362 Z M 482 671.393 C 468.624 671.393 457.781 682.138 457.781 695.362 C 457.781 708.586 468.624 719.3 482 719.3 C 495.376 719.3 506.219 708.586 506.219 695.362 C 506.219 682.138 495.376 671.393 482 671.393 Z M 583.313 679.331 C 572.577 679.331 563.875 687.936 563.875 698.55 C 563.875 705.183 567.267 711.034 572.438 714.487 C 568.833 716.663 565.995 719.959 564.438 723.893 C 564.756 722.513 564.938 721.088 564.938 719.612 C 564.938 708.999 556.235 700.393 545.5 700.393 C 534.765 700.393 526.063 708.999 526.063 719.612 C 526.063 730.226 534.765 738.831 545.5 738.831 C 553.734 738.831 560.761 733.76 563.594 726.612 C 563.276 727.99 563.094 729.421 563.094 730.893 C 563.094 741.507 571.796 750.112 582.531 750.112 C 593.267 750.112 601.969 741.507 601.969 730.893 C 601.969 724.26 598.577 718.409 593.406 714.956 C 598.992 711.58 602.75 705.496 602.75 698.55 C 602.75 687.936 594.048 679.331 583.313 679.331 Z M 696.375 681.143 C 677.271 681.143 661.781 696.475 661.781 715.362 C 661.781 734.249 677.271 749.55 696.375 749.55 C 697.6 749.55 698.807 749.485 700 749.362 L 700 681.331 C 698.807 681.208 697.6 681.143 696.375 681.143 Z M 426.656 711.987 C 421.289 711.987 416.969 716.274 416.969 721.581 C 416.969 726.888 421.289 731.175 426.656 731.175 C 432.024 731.175 436.406 726.888 436.406 721.581 C 436.406 716.274 432.024 711.987 426.656 711.987 Z M 630.219 718.612 C 624.851 718.612 620.531 722.93 620.531 728.237 C 620.531 733.544 624.851 737.831 630.219 737.831 C 635.586 737.831 639.969 733.544 639.969 728.237 C 639.969 722.93 635.586 718.612 630.219 718.612 Z M 495.281 738.143 C 484.546 738.143 475.844 746.749 475.844 757.362 C 475.844 767.976 484.546 776.581 495.281 776.581 C 506.017 776.581 514.719 767.976 514.719 757.362 C 514.719 746.749 506.017 738.143 495.281 738.143 Z M 596.469 767.425 C 577.365 767.425 561.875 782.725 561.875 801.612 C 561.875 820.499 577.365 835.8 596.469 835.8 C 615.573 835.8 631.063 820.499 631.063 801.612 C 631.063 782.725 615.573 767.425 596.469 767.425 Z M 429.531 770.925 C 418.796 770.925 410.094 779.53 410.094 790.143 C 410.094 800.757 418.796 809.393 429.531 809.393 C 440.267 809.393 448.969 800.757 448.969 790.143 C 448.969 779.53 440.267 770.925 429.531 770.925 Z M 529.781 779.425 C 519.046 779.425 510.344 788.03 510.344 798.643 C 510.344 809.257 519.046 817.862 529.781 817.862 C 540.517 817.862 549.219 809.257 549.219 798.643 C 549.219 788.03 540.517 779.425 529.781 779.425 Z M 486.563 813.55 C 481.195 813.55 476.875 817.837 476.875 823.143 C 476.875 828.45 481.195 832.768 486.563 832.768 C 491.93 832.768 496.313 828.45 496.313 823.143 C 496.313 817.837 491.93 813.55 486.563 813.55 Z M 700 842.175 C 689.322 842.241 680.688 850.821 680.688 861.393 C 680.688 871.966 689.322 880.545 700 880.612 L 700 842.175 Z M 459.063 851.3 C 439.959 851.3 424.469 866.631 424.469 885.518 C 424.469 904.406 439.959 919.706 459.063 919.706 C 478.166 919.706 493.656 904.406 493.656 885.518 C 493.656 866.631 478.166 851.3 459.063 851.3 Z M 639 862.456 C 628.265 862.456 619.531 871.061 619.531 881.675 C 619.531 892.288 628.265 900.893 639 900.893 C 649.735 900.893 658.438 892.288 658.438 881.675 C 658.438 871.061 649.735 862.456 639 862.456 Z M 537.563 870.737 C 532.195 870.737 527.813 875.024 527.813 880.331 C 527.813 885.638 532.195 889.956 537.563 889.956 C 542.93 889.956 547.25 885.638 547.25 880.331 C 547.25 875.024 542.93 870.737 537.563 870.737 Z M 579.125 886.487 C 568.39 886.487 559.688 895.092 559.688 905.706 C 559.688 916.32 568.39 924.925 579.125 924.925 C 589.86 924.925 598.594 916.32 598.594 905.706 C 598.594 895.092 589.86 886.487 579.125 886.487 Z M 439.344 927.456 C 433.976 927.456 429.625 931.743 429.625 937.05 C 429.625 942.356 433.976 946.643 439.344 946.643 C 444.711 946.643 449.063 942.356 449.063 937.05 C 449.063 931.743 444.711 927.456 439.344 927.456 Z" id="imagebot_5"/>
   <path opacity="0.19712" fill="#ffeeaa" d="M73.29724,1052.36218C80.78272,1049.61633 86.13951,1042.55725 86.13951,1034.26843C86.13951,1023.59766 77.27009,1014.92468 66.39451,1014.92468C55.51896,1014.92468 46.71374,1023.59766 46.71374,1034.26843C46.71374,1042.55286 52.02871,1049.61316 59.4918,1052.36218L73.29724,1052.36218zM671.90753,1050.92468C687.44061,1050.92468 700,1038.57141 700,1023.33087C700,1008.09045 687.44061,995.70593 671.90753,995.70593C656.37445,995.70593 643.78296,1008.09045 643.78296,1023.33087C643.78296,1038.57141 656.37445,1050.92468 671.90753,1050.92468zM485.43784,1037.70593C496.31345,1037.70593 505.11853,1029.03284 505.11853,1018.36218C505.11853,1007.69147 496.31345,999.04968 485.43784,999.04968C474.56223,999.04968 465.75705,1007.69147 465.75705,1018.36218C465.75705,1029.03284 474.56223,1037.70593 485.43784,1037.70593zM603.71515,1027.61218C608.07941,1027.61218 611.58093,1024.17554 611.58093,1019.89337C611.58093,1015.61127 608.07941,1012.14349 603.71515,1012.14349C599.35071,1012.14349 595.75293,1015.61127 595.75293,1019.89337C595.75293,1024.17554 599.35071,1027.61218 603.71515,1027.61218zM549.39233,1007.29968C564.92535,1007.29968 577.48474,994.94635 577.48474,979.70587C577.48474,964.46545 564.92535,952.11218 549.39233,952.11218C533.85925,952.11218 521.2677,964.46545 521.2677,979.70587C521.2677,994.94635 533.85925,1007.29968 549.39233,1007.29968zM406.36151,993.26837C421.89456,993.26837 434.45398,980.9151 434.45398,965.67468C434.45398,950.43427 421.89456,938.08099 406.36151,938.08099C390.82843,938.08099 378.23694,950.43427 378.23694,965.67468C378.23694,980.9151 390.82843,993.26837 406.36151,993.26837zM157.09306,985.64349C167.96863,985.64349 176.77383,976.9704 176.77383,966.29968C176.77383,955.62897 167.96863,946.98718 157.09306,946.98718C146.2175,946.98718 137.41228,955.62897 137.41228,966.29968C137.41228,976.9704 146.2175,985.64349 157.09306,985.64349zM277.90671,966.48718C282.27109,966.48718 285.80469,962.95685 285.80469,958.67468C285.80469,954.39246 282.27109,950.95587 277.90671,950.95587C273.54233,950.95587 270.00873,954.39246 270.00873,958.67468C270.00873,962.95685 273.54233,966.48718 277.90671,966.48718zM632.89911,954.26849C643.77472,954.26849 652.5799,945.5954 652.5799,934.92468C652.5799,924.25397 643.77472,915.61218 632.89911,915.61218C622.0235,915.61218 613.21832,924.25397 613.21832,934.92468C613.21832,945.5954 622.0235,954.26849 632.89911,954.26849zM517.19031,946.73718C527.5943,946.2226 535.87579,937.82434 535.87579,927.48718C535.87579,916.81647 527.07062,908.14337 516.19501,908.14337C505.31943,908.14337 496.45001,916.81647 496.45001,927.48718C496.45001,938.1579 505.31943,946.73718 516.19501,946.73718C516.53491,946.73718 516.85474,946.75415 517.19031,946.73718zM59.26707,938.42468C70.14264,938.42468 79.01205,929.75159 79.01205,919.08099C79.01205,908.41028 70.14264,899.76837 59.26707,899.76837C48.39148,899.76837 39.58628,908.41028 39.58628,919.08099C39.58628,929.75159 48.39148,938.42468 59.26707,938.42468zM476.99399,902.61218C487.8696,902.61218 496.67471,893.9704 496.67471,883.29968C496.67471,872.62897 487.8696,863.95587 476.99399,863.95587C466.11841,863.95587 457.3132,872.62897 457.3132,883.29968C457.3132,893.9704 466.11841,902.61218 476.99399,902.61218zM154.33195,880.08099C169.86504,880.08099 182.45651,867.7901 182.45651,852.54968C182.45651,837.30927 169.86504,824.95587 154.33195,824.95587C138.7989,824.95587 126.20738,837.30927 126.20738,852.54968C126.20738,867.7901 138.7989,880.08099 154.33195,880.08099zM635.2749,864.08099C639.63934,864.08099 643.17291,860.6131 643.17291,856.33087C643.17291,852.04877 639.63934,848.51837 635.2749,848.51837C630.91064,848.51837 627.37689,852.04877 627.37689,856.33087C627.37689,860.6131 630.91064,864.08099 635.2749,864.08099zM532.08734,855.51837C542.96289,855.51837 551.76813,846.8454 551.76813,836.17468C551.76813,825.50397 542.96289,816.86218 532.08734,816.86218C521.21173,816.86218 512.40649,825.50397 512.40649,836.17468C512.40649,846.8454 521.21173,855.51837 532.08734,855.51837zM293.95953,842.17468C302.68829,842.17468 309.75552,835.23895 309.75552,826.67468C309.75552,818.11035 302.68829,811.20587 293.95953,811.20587C285.2308,811.20587 278.16354,818.11035 278.16354,826.67468C278.16354,835.23895 285.2308,842.17468 293.95953,842.17468zM591.8681,823.08087C600.5968,823.08087 607.63202,816.14514 607.63202,807.58087C607.63202,799.01654 600.5968,792.11218 591.8681,792.11218C583.13928,792.11218 576.00793,799.01654 576.00793,807.58087C576.00793,816.14514 583.13928,823.08087 591.8681,823.08087zM62.25288,819.11218C66.61727,819.11218 70.21509,815.64435 70.21509,811.36218C70.21509,807.08008 66.61727,803.64337 62.25288,803.64337C57.88851,803.64337 54.38699,807.08008 54.38699,811.36218C54.38699,815.64435 57.88851,819.11218 62.25288,819.11218zM668.53638,784.17468C677.2652,784.17468 684.3324,777.20764 684.3324,768.64337C684.3324,760.07904 677.2652,753.14337 668.53638,753.14337C659.80768,753.14337 652.74042,760.07904 652.74042,768.64337C652.74042,777.20764 659.80768,784.17468 668.53638,784.17468zM175.04012,782.73718C185.91568,782.73718 194.72089,774.06409 194.72089,763.39337C194.72089,752.72278 185.91568,744.08087 175.04012,744.08087C164.16455,744.08087 155.35933,752.72278 155.35933,763.39337C155.35933,774.06409 164.16455,782.73718 175.04012,782.73718zM99.11019,782.61218C107.83895,782.61218 114.90619,775.64514 114.90619,767.08087C114.90619,758.51654 107.83895,751.58087 99.11019,751.58087C90.38145,751.58087 83.3142,758.51654 83.3142,767.08087C83.3142,775.64514 90.38145,782.61218 99.11019,782.61218zM518.21771,759.95587C529.09332,759.95587 537.89844,751.31409 537.89844,740.64337C537.89844,729.97278 529.09332,721.36218 518.21771,721.36218C507.3421,721.36218 498.47269,729.97278 498.47269,740.64337C498.47269,751.31409 507.3421,759.95587 518.21771,759.95587zM615.30524,741.73718C624.034,741.73718 631.1012,734.80145 631.1012,726.23718C631.1012,717.67285 624.034,710.70587 615.30524,710.70587C606.57654,710.70587 599.50922,717.67285 599.50922,726.23718C599.50922,734.80145 606.57642,741.73718 615.30524,741.73718zM28.12454,738.36218C43.65761,738.36218 56.217,726.00879 56.217,710.76837C56.217,695.52808 43.65761,683.17474 28.12454,683.17474C12.59146,683.17474 -0.00003,695.52808 -0.00003,710.76837C-0.00003,726.00879 12.59146,738.36218 28.12454,738.36218zM380.16324,737.29968C390.56723,736.78497 398.81662,728.38684 398.81662,718.04968C398.81662,707.37897 390.01144,698.70587 379.13586,698.70587C368.26028,698.70587 359.45508,707.37897 359.45508,718.04968C359.45508,728.7204 368.26028,737.29968 379.13586,737.29968C379.47571,737.29968 379.82761,737.31665 380.16324,737.29968zM244.19571,704.92468C252.92448,704.92468 259.95959,698.02014 259.95959,689.45587C259.95959,680.89154 252.92448,673.95587 244.19571,673.95587C235.46696,673.95587 228.33551,680.89154 228.33551,689.45587C228.33551,698.02014 235.46696,704.92468 244.19571,704.92468zM130.47742,703.54956C134.8418,703.54956 138.40752,700.08179 138.40752,695.79974C138.40752,691.51746 134.8418,688.04968 130.47742,688.04968C126.11304,688.04968 122.57941,691.51746 122.57941,695.79974C122.57941,700.08179 126.11304,703.54956 130.47742,703.54956zM669.30688,692.89337C680.1825,692.89337 688.98767,684.2204 688.98767,673.54968C688.98767,662.87897 680.1825,654.23718 669.30688,654.23718C658.4314,654.23718 649.62616,662.87897 649.62616,673.54968C649.62616,684.2204 658.4314,692.89337 669.30688,692.89337zM70.95352,667.86218C75.31792,667.86218 78.85153,664.39429 78.85153,660.11218C78.85153,655.83008 75.31792,652.36218 70.95352,652.36218C66.58914,652.36218 63.05552,655.83008 63.05552,660.11218C63.05552,664.39429 66.58914,667.86218 70.95352,667.86218z" id="imagebot_4"/>
  </g>
  <title>Layer 1</title>
 </g>
</svg>