<?xml version="1.0" encoding="UTF-8" standalone="no"?>
<!-- Generator: Adobe Illustrator 15.1.0, SVG Export Plug-In . SVG Version: 6.00 Build 0)  -->

<svg
   xmlns:dc="http://purl.org/dc/elements/1.1/"
   xmlns:cc="http://creativecommons.org/ns#"
   xmlns:rdf="http://www.w3.org/1999/02/22-rdf-syntax-ns#"
   xmlns:svg="http://www.w3.org/2000/svg"
   xmlns="http://www.w3.org/2000/svg"
   xmlns:xlink="http://www.w3.org/1999/xlink"
   xmlns:sodipodi="http://sodipodi.sourceforge.net/DTD/sodipodi-0.dtd"
   xmlns:inkscape="http://www.inkscape.org/namespaces/inkscape"
   version="1.1"
   id="Layer_1"
   x="0px"
   y="0px"
   width="2270.8401"
   height="1665.712"
   viewBox="-1055.698 -16.894 2270.84 1665.712"
   enable-background="new -1055.698 -16.894 4654.059 1703.753"
   xml:space="preserve"
   inkscape:version="0.48.2 r9819"
   sodipodi:docname="landscape-1.svg"><metadata
   id="metadata3581"><rdf:RDF><cc:Work
       rdf:about=""><dc:format>image/svg+xml</dc:format><dc:type
         rdf:resource="http://purl.org/dc/dcmitype/StillImage" /><dc:title></dc:title></cc:Work></rdf:RDF></metadata><defs
   id="defs3579" /><sodipodi:namedview
   pagecolor="#ffffff"
   bordercolor="#666666"
   borderopacity="1"
   objecttolerance="10"
   gridtolerance="10"
   guidetolerance="10"
   inkscape:pageopacity="0"
   inkscape:pageshadow="2"
   inkscape:window-width="640"
   inkscape:window-height="480"
   id="namedview3577"
   showgrid="false"
   fit-margin-top="0"
   fit-margin-left="-0.6"
   fit-margin-right="0"
   fit-margin-bottom="0"
   borderlayer="true"
   showborder="true"
   inkscape:zoom="0.072839643"
   inkscape:cx="1256.9382"
   inkscape:cy="745.88323"
   inkscape:window-x="0"
   inkscape:window-y="0"
   inkscape:window-maximized="0"
   inkscape:current-layer="Layer_1" />
<filter
   width="1.38232"
   id="imagebot_81"
   x="-0.19115999"
   height="2.2602501"
   y="-0.63011998"
   color-interpolation-filters="sRGB">
	<feGaussianBlur
   id="imagebot_144"
   stdDeviation="40.50794" />
</filter>
<filter
   width="1.49633"
   id="imagebot_117"
   x="-0.24816"
   height="1.5287"
   y="-0.26435"
   color-interpolation-filters="sRGB">
	<feGaussianBlur
   id="imagebot_142"
   stdDeviation="57.90476" />
</filter>
<g
   id="imagebot_120"
   transform="translate(2492.529,7328.74)">
	
		<linearGradient
   id="imagebot_129_1_"
   gradientUnits="userSpaceOnUse"
   x1="4355.0015"
   y1="1258.3398"
   x2="4355.0015"
   y2="1257.1503"
   gradientTransform="matrix(2271.4285,0,0,-1025.7142,-9894486,1283156.3)">
		<stop
   offset="0"
   style="stop-color:#00ACF4"
   id="stop3291" />
		<stop
   offset="1"
   style="stop-color:#A6E5FF"
   id="stop3293" />
	</linearGradient>
	<path
   id="imagebot_129"
   d="m -3527.778,-7345.633 h 2229.352 c 11.619,0 21.039,5.756 21.039,12.856 v 1000 c 0,7.102 -9.42,12.857 -21.039,12.857 h -2229.352 c -11.619,0 -21.039,-5.756 -21.039,-12.857 v -1000 c 0,-7.1 9.42,-12.856 21.039,-12.856 z"
   style="fill:url(#imagebot_129_1_)"
   inkscape:connector-curvature="0" />
	
		<linearGradient
   id="imagebot_127_1_"
   gradientUnits="userSpaceOnUse"
   x1="4354.9971"
   y1="1259.6865"
   x2="4355.0078"
   y2="1258.1906"
   gradientTransform="matrix(2271.438,0,0,-860.749,-9894528,1077672.5)">
		<stop
   offset="0"
   style="stop-color:#55A800"
   id="stop3297" />
		<stop
   offset="1"
   style="stop-color:#74E400"
   id="stop3299" />
	</linearGradient>
	<path
   id="imagebot_127"
   d="m -2337.388,-6540.671 c -215.172,0 -379.223,34.241 -506.188,86.407 -139.693,-48.926 -270.225,-63.532 -468.094,-63.532 -83.303,0 -163.477,5.155 -237.157,15.063 v 809.971 c 0,7.121 9.407,12.84 21.063,12.84 h 2229.345 c 11.649,0 21.03,-5.719 21.03,-12.84 v -707.408 c -167.74,0.928 -334.181,3.174 -499.121,6.719 -168.052,-63.886 -304.036,-147.22 -560.878,-147.22 z"
   style="fill:url(#imagebot_127_1_)"
   inkscape:connector-curvature="0" />
	<g
   id="g3302">
		<defs
   id="defs3304">
			<path
   id="SVGID_1_"
   d="m -3527.763,-7345.64 c -11.656,0 -21.063,5.752 -21.063,12.875 v 830.031 c 73.681,-9.908 153.852,-15.063 237.155,-15.063 343.817,0 484.306,44.118 822.845,235.719 342.856,194.045 775.268,461.424 -891.407,464.281 -60.104,0.104 -116.483,-9.398 -168.593,-25.938 v 150.969 c 0,7.123 9.406,12.844 21.063,12.844 h 2229.344 c 11.654,0 21.031,-5.721 21.031,-12.844 v -640 -67.406 -932.594 c 0,-7.123 -9.377,-12.875 -21.031,-12.875 h -2229.344 z"
   inkscape:connector-curvature="0" />
		</defs>
		<clipPath
   id="SVGID_2_">
			<use
   xlink:href="#SVGID_1_"
   overflow="visible"
   id="use3308"
   style="overflow:visible"
   x="0"
   y="0"
   width="4654.0591"
   height="1703.7531" />
		</clipPath>
		
			<linearGradient
   id="imagebot_124_1_"
   gradientUnits="userSpaceOnUse"
   x1="4357.562"
   y1="1264.4697"
   x2="4357.5605"
   y2="1263.4562"
   gradientTransform="matrix(4654.0586,0,0,-582.0759,-20282638,729191.88)">
			<stop
   offset="0"
   style="stop-color:#007900"
   id="stop3311" />
			<stop
   offset="1"
   style="stop-color:#008400;stop-opacity:0"
   id="stop3313" />
		</linearGradient>
		<path
   id="imagebot_124"
   clip-path="url(#SVGID_2_)"
   d="m -1588.818,-6339.233 c 273.66,51.379 3923.451,427.82 -745.713,375.711 -4661.077,-52.1 -787.937,-313.381 -700,-381.426 140,-108.33 353.326,-195.713 697.144,-195.713 343.816,0 471.073,149.328 748.569,201.428 z"
   style="fill:url(#imagebot_124_1_)"
   inkscape:connector-curvature="0" />
	</g>
	<g
   id="g3316">
		<defs
   id="defs3318">
			<path
   id="SVGID_3_"
   d="m -3527.764,-7345.64 c -11.655,0 -21.063,5.752 -21.063,12.875 v 830.031 169.969 640 c 0,7.123 9.407,12.844 21.063,12.844 h 2229.344 c 11.655,0 21.031,-5.721 21.031,-12.844 v -640 -67.406 -932.594 c 0,-7.123 -9.376,-12.875 -21.031,-12.875 h -2229.344 z"
   inkscape:connector-curvature="0" />
		</defs>
		<clipPath
   id="SVGID_4_">
			<use
   xlink:href="#SVGID_3_"
   overflow="visible"
   id="use3322"
   style="overflow:visible"
   x="0"
   y="0"
   width="4654.0591"
   height="1703.7531" />
		</clipPath>
		
			<linearGradient
   id="imagebot_121_1_"
   gradientUnits="userSpaceOnUse"
   x1="4353.6035"
   y1="1261.8301"
   x2="4353.6035"
   y2="1261.1278"
   gradientTransform="matrix(1775.2842,0,0,-700.0029,-7731942,876682.44)">
			<stop
   offset="0"
   style="stop-color:#00A400"
   id="stop3325" />
			<stop
   offset="1"
   style="stop-color:#00A400;stop-opacity:0"
   id="stop3327" />
		</linearGradient>
		<path
   id="imagebot_121"
   clip-path="url(#SVGID_4_)"
   d="m -2488.817,-6282.091 c 342.858,194.049 775.249,461.428 -891.428,464.289 -343.817,0.59 -565.514,-312.67 -565.713,-464.289 -0.19,-148.014 290.467,-235.713 634.283,-235.713 343.818,0 484.321,44.114 822.858,235.713 z"
   style="fill:url(#imagebot_121_1_)"
   inkscape:connector-curvature="0" />
	</g>
	<title
   id="title3330">background</title>
</g>
<g
   id="imagebot_2"
   transform="translate(2492.529,7328.74)">
	<g
   id="g3333">
		<defs
   id="defs3335">
			<path
   id="SVGID_5_"
   d="m -3527.778,-7345.634 h 2229.352 c 11.619,0 21.039,5.757 21.039,12.856 v 1000.001 c 0,7.102 -9.42,12.857 -21.039,12.857 h -2229.352 c -11.619,0 -21.039,-5.756 -21.039,-12.857 v -1000.001 c 0,-7.099 9.42,-12.856 21.039,-12.856 z"
   inkscape:connector-curvature="0" />
		</defs>
		<clipPath
   id="SVGID_6_">
			<use
   xlink:href="#SVGID_5_"
   overflow="visible"
   id="use3339"
   style="overflow:visible"
   x="0"
   y="0"
   width="4654.0591"
   height="1703.7531" />
		</clipPath>
		<g
   id="imagebot_115"
   clip-path="url(#SVGID_6_)"
   enable-background="new    "
   style="opacity:0.28889998;filter:url(#imagebot_117)">
			<path
   d="m -3282.145,-7216.926 c 0,91.607 -79.107,165.869 -176.689,165.867 -97.582,0 -176.687,-74.264 -176.685,-165.871 10e-4,-91.607 79.107,-165.869 176.689,-165.867 91.697,0 168.154,65.855 176.031,151.621"
   id="path3342"
   inkscape:connector-curvature="0"
   style="fill:#f57900" />
		</g>
	</g>
	<g
   id="imagebot_103"
   transform="matrix(0.545965,0,0,0.545965,5118.25,330.7808)">
		<path
   id="imagebot_114"
   d="m -15125.492,-13147.084 c -94.876,0 -178.408,43.144 -226.938,108.405 -152.313,26.533 -267.343,145.773 -267.343,288.75 0,76.828 33.229,146.793 87.594,199.219 -1.23,10.58 -1.877,21.339 -1.877,32.221 0,164.023 143.36,297.123 320.001,297.123 87.112,0 166.123,-32.382 223.844,-84.873 39.231,17.854 82.358,27.75 127.593,27.75 181.373,0 328.564,-158.747 328.564,-354.314 0,-195.564 -147.191,-354.28 -328.564,-354.28 -2.302,0 -4.615,0.04 -6.904,0.09 -37.271,-93.219 -137.834,-160.094 -255.97,-160.094 z"
   inkscape:connector-curvature="0"
   style="fill:#4e9a06" />
		
			<linearGradient
   id="imagebot_112_1_"
   gradientUnits="userSpaceOnUse"
   x1="-40705.039"
   y1="26361.221"
   x2="-40775.207"
   y2="26361.221"
   gradientTransform="matrix(0.546,0,0,-0.546,8743.6934,1759.5167)">
			<stop
   offset="0"
   style="stop-color:#458905"
   id="stop3347" />
			<stop
   offset="1"
   style="stop-color:#4E9A06;stop-opacity:0"
   id="stop3349" />
		</linearGradient>
		<path
   id="imagebot_112"
   d="m -14534.055,-12632.789 c 0,195.668 -147.109,354.289 -328.575,354.289 -181.468,0 -328.575,-158.621 -328.575,-354.289 0,-195.67 147.107,-354.291 328.575,-354.291 181.466,0 328.575,158.621 328.575,354.291 z"
   style="fill:url(#imagebot_112_1_)"
   inkscape:connector-curvature="0" />
		
			<linearGradient
   id="imagebot_110_1_"
   gradientUnits="userSpaceOnUse"
   x1="-41563.59"
   y1="26863.613"
   x2="-41502.273"
   y2="26863.613"
   gradientTransform="matrix(0.546,0,0,-0.546,8743.6934,1759.5167)">
			<stop
   offset="0"
   style="stop-color:#69D007"
   id="stop3353" />
			<stop
   offset="1"
   style="stop-color:#4E9A06;stop-opacity:0"
   id="stop3355" />
		</linearGradient>
		<path
   id="imagebot_110"
   d="m -14854.055,-12907.076 c 0,132.55 -121.524,240.002 -271.431,240.002 -149.907,0 -271.43,-107.452 -271.43,-240.002 l 0,0 c 0,-132.549 121.523,-240.001 271.43,-240.001 149.907,0 271.431,107.452 271.431,240.001 z"
   style="fill:url(#imagebot_110_1_)"
   inkscape:connector-curvature="0" />
		
			<linearGradient
   id="imagebot_108_1_"
   gradientUnits="userSpaceOnUse"
   x1="-42274.473"
   y1="26575.787"
   x2="-41894.457"
   y2="26575.787"
   gradientTransform="matrix(0.546,0,0,-0.546,8743.6934,1759.5167)">
			<stop
   offset="0"
   style="stop-color:#69D007"
   id="stop3359" />
			<stop
   offset="1"
   style="stop-color:#4E9A06;stop-opacity:0"
   id="stop3361" />
		</linearGradient>
		<path
   id="imagebot_108"
   d="m -14956.915,-12749.933 c 0,162.53 -148.387,294.287 -331.431,294.287 -183.044,0 -331.43,-131.757 -331.43,-294.287 0,-162.53 148.386,-294.287 331.43,-294.287 183.044,0 331.431,131.757 331.431,294.287 z"
   style="fill:url(#imagebot_108_1_)"
   inkscape:connector-curvature="0" />
		
			<linearGradient
   id="imagebot_106_1_"
   gradientUnits="userSpaceOnUse"
   x1="-42018.305"
   y1="26151.893"
   x2="-41620.742"
   y2="26151.893"
   gradientTransform="matrix(0.546,0,0,-0.546,8743.6934,1759.5167)">
			<stop
   offset="0"
   style="stop-color:#458905"
   id="stop3365" />
			<stop
   offset="1"
   style="stop-color:#4E9A06;stop-opacity:0"
   id="stop3367" />
		</linearGradient>
		<path
   id="imagebot_106"
   enable-background="new    "
   d="m -14894.056,-12518.5 c 0,164.105 -143.269,297.142 -320,297.142 -176.731,0 -320.001,-133.036 -320.001,-297.142 0,-164.107 143.27,-297.144 320.001,-297.144 176.731,0 320,133.037 320,297.144 z"
   style="opacity:0.31110002;fill:url(#imagebot_106_1_)"
   inkscape:connector-curvature="0" />
		
			<linearGradient
   id="imagebot_104_1_"
   gradientUnits="userSpaceOnUse"
   x1="-1499.5723"
   y1="1712.7347"
   x2="-1499.0725"
   y2="1712.7347"
   gradientTransform="matrix(187.7996,0,0,-494.3104,266476.16,834680.44)">
			<stop
   offset="0"
   style="stop-color:#8F5902"
   id="stop3371" />
			<stop
   offset="1"
   style="stop-color:#724701"
   id="stop3373" />
		</linearGradient>
		<path
   id="imagebot_104"
   d="m -15229.591,-12395.276 c 167.687,278.803 150.513,-74.75 238.396,44.448 -61.62,349.514 50.508,480.833 12.12,848.526 -123.236,44.449 -110.104,-46.467 -335.368,-24.244 -7.072,-341.429 82.831,-626.292 84.852,-868.73 z"
   style="fill:url(#imagebot_104_1_)"
   inkscape:connector-curvature="0" />
	</g>
	<path
   id="imagebot_102"
   enable-background="new    "
   d="m -3371.191,-6042.823 c -4.184,1.422 -5.229,4.701 -8.741,9.602 -4.571,8.41 -13.83,33.59 -12.789,37.709 1.38,7.409 13.012,-34.62 21.53,-47.311 z m -78.538,18.33 c 9.929,30.301 10.864,32.57 18.607,32.131 -1.644,-5.59 -6.365,-10.141 -9.679,-15.449 -3.529,-5.67 -5.449,-16.262 -8.928,-16.682 z m 34.9,1.111 c -11.3,19.789 -12.507,26.92 -10.604,29.15 3.481,2.159 2.721,-3.46 10.604,-29.15 z m 21.141,4.24 c -2.781,-0.76 -4.808,6.1 -5.914,11.709 -2.822,14.32 -2.854,12.25 -0.951,13.471 2.622,1.67 2.606,-12.939 6.865,-25.18 z m 18.712,-1.31 c -2.912,0.141 -4.427,5.939 -6.469,11.289 -2.051,10.211 -8.019,16.561 -3.81,16.941 4.186,0.389 7.082,-16.111 10.279,-28.23 z m -31.209,3.92 c -9.183,16.42 -11.146,21.459 -7.459,22.141 2.379,0.43 2.566,-3.58 5.281,-10.32 1.75,-4.351 3.93,-8.161 2.178,-11.821 z"
   inkscape:connector-curvature="0"
   style="opacity:0.69800002;fill:#1e9e00" />
	<g
   id="imagebot_82"
   transform="translate(4156.799,-121.9002)">
		<path
   id="imagebot_101"
   d="m -7413.481,-5703.448 c 0.016,8.994 -13.403,16.293 -29.973,16.303 -16.568,0.01 -30.012,-7.277 -30.027,-16.271 0,-0.01 0,-0.02 0,-0.031 -0.016,-8.994 13.402,-16.291 29.971,-16.301 16.569,-0.01 30.014,7.277 30.029,16.271 0,0.01 0,0.019 0,0.029 z"
   inkscape:connector-curvature="0"
   style="fill:#ad7fa8" />
		<path
   id="imagebot_100"
   d="m -7532.532,-5862.876 c -1.719,1.156 -5.959,0.098 -8.366,0.48 -2.487,0.395 -5.171,3.605 -7.69,3.137 -2.439,-0.455 -3.999,-4.031 -5.78,-5.154 -1.841,-1.16 -5.577,-0.928 -6.379,-2.484 -0.775,-1.508 2.538,-3.949 3.204,-5.475 0.688,-1.576 -1.084,-4.23 0.771,-5.355 1.794,-1.088 5.755,0.426 8.131,0 2.455,-0.434 5.074,-3.049 7.613,-2.662 2.458,0.375 4.079,3.057 5.881,4.135 1.861,1.115 6.874,1.443 7.727,2.961 0.824,1.469 -4.221,3.188 -4.729,4.73 -0.527,1.593 1.393,4.486 -0.383,5.683 z"
   inkscape:connector-curvature="0"
   style="fill:#ce5c00" />
		<path
   id="imagebot_99"
   d="m -7581.347,-5826.319 c -2.155,1.18 -6.271,1.393 -9.333,1.807 -3.061,0.414 -7.542,2.395 -10.556,1.91 -3.014,-0.482 -5.759,-2.867 -7.953,-4.004 -2.195,-1.137 -6.178,-2.289 -7.106,-3.846 -0.929,-1.555 2.057,-3.949 2.786,-5.484 0.729,-1.535 -0.111,-4.535 2.136,-5.643 2.248,-1.105 7.788,-0.426 10.711,-0.92 2.922,-0.496 5.753,-2.213 8.791,-1.811 3.038,0.402 5.769,2.818 7.953,4.004 2.184,1.186 7.91,1.77 8.9,3.285 0.991,1.516 -2.092,4.014 -2.91,5.527 -0.817,1.515 -1.262,3.997 -3.419,5.175 z"
   inkscape:connector-curvature="0"
   style="fill:#f57900" />
		<path
   id="imagebot_98"
   d="m -7497.3,-5855.146 c -1.712,0.918 -6.621,-0.451 -8.984,0.037 -2.364,0.49 -7.219,3.115 -9.809,2.813 -2.591,-0.305 -3.897,-2.717 -6.074,-3.477 -2.178,-0.76 -6.039,-0.656 -7.052,-1.791 -1.013,-1.137 1.337,-3.791 1.945,-4.975 0.608,-1.182 -1.159,-3.342 0.533,-4.32 1.692,-0.978 6.829,-0.781 9.349,-1.105 2.519,-0.326 5.351,-1.885 7.987,-1.684 2.636,0.201 5.213,2.158 7.403,2.873 2.19,0.715 6.379,1.506 7.543,2.631 1.164,1.125 -1.746,2.418 -2.035,3.643 -0.289,1.227 0.906,4.438 -0.806,5.355 z"
   inkscape:connector-curvature="0"
   style="fill:#fcc916" />
		<path
   id="imagebot_97"
   d="m -7545.958,-5842.472 c -1.922,1.342 -7.361,-0.039 -10.083,0.637 -2.722,0.674 -7.454,3.92 -10.394,3.537 -2.94,-0.383 -4.627,-3.645 -7.03,-4.752 -2.404,-1.109 -7.088,-1.252 -8.197,-2.898 -1.109,-1.646 1.763,-4.971 2.376,-6.693 0.613,-1.722 -1.269,-4.789 0.64,-6.184 1.908,-1.396 7.505,-1.064 10.338,-1.592 2.833,-0.529 6.149,-2.818 9.118,-2.529 2.97,0.291 5.547,3.145 7.962,4.213 2.415,1.068 7.325,2.012 8.541,3.65 1.216,1.638 -2.05,3.74 -2.439,5.502 -0.389,1.762 1.091,5.768 -0.832,7.109 z"
   inkscape:connector-curvature="0"
   style="fill:#ad7fa8" />
		<path
   id="imagebot_96"
   d="m -7552.063,-5806.747 c -2.744,1.703 -9.515,0.146 -13.357,0.709 -3.97,0.58 -8.255,5.305 -12.276,4.615 -3.895,-0.67 -6.385,-5.932 -9.229,-7.584 -2.938,-1.709 -8.902,-1.367 -10.183,-3.658 -1.238,-2.217 4.052,-5.811 5.114,-8.055 1.098,-2.32 -1.729,-6.225 1.23,-7.879 2.865,-1.6 9.188,0.625 12.98,0.01 3.919,-0.641 8.102,-4.486 12.154,-3.916 3.924,0.551 6.512,4.496 9.388,6.084 2.972,1.639 10.975,2.121 12.335,4.355 1.316,2.16 -6.737,4.691 -7.549,6.961 -0.836,2.344 2.228,6.602 -0.607,8.362 z"
   inkscape:connector-curvature="0"
   style="fill:#ce5c00" />
		<path
   id="imagebot_95"
   d="m -7520.177,-5818.187 c -2.27,1.342 -8.691,-0.039 -11.904,0.637 -3.214,0.676 -8.801,3.92 -12.271,3.537 -3.471,-0.381 -5.463,-3.643 -8.301,-4.752 -2.838,-1.107 -8.368,-1.252 -9.678,-2.898 -1.31,-1.646 2.081,-4.971 2.806,-6.693 0.725,-1.722 -1.498,-4.787 0.755,-6.184 2.253,-1.397 8.86,-1.064 12.205,-1.592 3.345,-0.528 7.26,-2.818 10.766,-2.527 3.506,0.289 6.549,3.143 9.4,4.211 2.85,1.068 8.648,2.012 10.083,3.65 1.436,1.639 -2.421,3.74 -2.88,5.502 -0.46,1.762 1.289,5.77 -0.981,7.109 z"
   inkscape:connector-curvature="0"
   style="fill:#3465a4" />
		<path
   id="imagebot_94"
   d="m -7496.985,-5771.915 c -2.718,1.482 -10.509,-0.73 -14.26,0.061 -3.752,0.791 -11.456,5.035 -15.567,4.543 -4.11,-0.49 -6.185,-4.389 -9.64,-5.617 -3.455,-1.228 -9.584,-1.063 -11.191,-2.896 -1.606,-1.834 2.121,-6.125 3.087,-8.035 0.966,-1.91 -1.839,-5.402 0.847,-6.984 2.686,-1.582 10.838,-1.262 14.836,-1.787 3.998,-0.525 8.493,-3.045 12.678,-2.719 4.186,0.326 8.273,3.488 11.75,4.643 3.476,1.154 10.123,2.436 11.971,4.252 1.847,1.818 -2.771,3.906 -3.23,5.887 -0.459,1.981 1.435,7.17 -1.281,8.652 z"
   inkscape:connector-curvature="0"
   style="fill:#fcaf3e" />
		<path
   id="imagebot_93"
   d="m -7448.613,-5748.694 c -3.257,2.092 -11.292,0.178 -15.853,0.869 -4.711,0.715 -9.796,6.52 -14.57,5.672 -4.621,-0.822 -7.576,-7.289 -10.951,-9.32 -3.486,-2.1 -10.566,-1.678 -12.085,-4.494 -1.47,-2.725 4.809,-7.141 6.069,-9.898 1.303,-2.85 -2.052,-7.648 1.461,-9.68 3.399,-1.969 10.902,0.766 15.404,0.01 4.651,-0.787 9.615,-5.514 14.426,-4.813 4.656,0.676 7.728,5.525 11.141,7.475 3.526,2.016 13.025,2.609 14.639,5.354 1.563,2.654 -7.995,5.764 -8.958,8.553 -0.996,2.879 2.641,8.112 -0.723,10.276 z"
   inkscape:connector-curvature="0"
   style="fill:#cc0000" />
		<path
   id="imagebot_92"
   d="m -7494.948,-5712.026 c -3.168,1.746 -12.251,-0.861 -16.625,0.07 -4.373,0.932 -13.355,5.93 -18.147,5.352 -4.793,-0.578 -7.21,-5.17 -11.238,-6.617 -4.028,-1.447 -11.174,-1.25 -13.047,-3.41 -1.874,-2.16 2.472,-7.217 3.599,-9.465 1.125,-2.25 -2.145,-6.365 0.986,-8.227 3.131,-1.863 12.636,-1.486 17.297,-2.105 4.66,-0.619 9.9,-3.586 14.779,-3.201 4.879,0.383 9.646,4.107 13.698,5.467 4.052,1.36 11.802,2.869 13.956,5.01 2.153,2.141 -3.231,4.6 -3.767,6.934 -0.535,2.33 1.677,8.446 -1.491,10.192 z"
   inkscape:connector-curvature="0"
   style="fill:#fcaf3e" />
		<path
   id="imagebot_91"
   d="m -7415.093,-5694.173 c -3,1.883 -11.487,-0.057 -15.734,0.893 -4.247,0.95 -11.631,5.508 -16.218,4.971 -4.587,-0.539 -7.22,-5.119 -10.971,-6.678 -3.751,-1.557 -11.06,-1.758 -12.791,-4.07 -1.731,-2.312 2.75,-6.982 3.708,-9.402 0.957,-2.422 -1.979,-6.727 0.998,-8.688 2.977,-1.961 11.71,-1.496 16.131,-2.236 4.42,-0.742 9.596,-3.959 14.229,-3.551 4.635,0.408 8.656,4.416 12.424,5.916 3.768,1.5 11.431,2.824 13.327,5.127 1.897,2.303 -3.199,5.256 -3.807,7.73 -0.608,2.474 1.704,8.103 -1.296,9.988 z"
   inkscape:connector-curvature="0"
   style="fill:#ad7fa8" />
		<path
   id="imagebot_90"
   d="m -7453.076,-5688.458 c -3.671,2.066 -10.683,2.441 -15.896,3.166 -5.213,0.723 -12.846,4.195 -17.979,3.348 -5.133,-0.847 -9.808,-5.025 -13.546,-7.016 -3.737,-1.99 -10.521,-4.014 -12.103,-6.738 -1.582,-2.724 3.503,-6.922 4.744,-9.611 1.241,-2.689 -0.189,-7.945 3.639,-9.883 3.829,-1.939 13.266,-0.748 18.242,-1.615 4.976,-0.867 9.797,-3.875 14.973,-3.172 5.175,0.705 9.825,4.939 13.546,7.018 3.721,2.076 13.472,3.1 15.158,5.756 1.686,2.656 -3.563,7.031 -4.956,9.684 -1.392,2.649 -2.15,6.999 -5.822,9.063 z"
   inkscape:connector-curvature="0"
   style="fill:#f57900" />
		<path
   id="imagebot_89"
   d="m -7471.698,-5801.796 c -2.683,1.443 -10.375,-0.713 -14.078,0.057 -3.703,0.771 -11.31,4.908 -15.368,4.43 -4.059,-0.48 -6.105,-4.279 -9.517,-5.477 -3.412,-1.198 -9.462,-1.033 -11.049,-2.82 -1.586,-1.789 2.094,-5.971 3.047,-7.832 0.954,-1.861 -1.814,-5.266 0.836,-6.807 2.651,-1.541 10.7,-1.23 14.647,-1.742 3.947,-0.512 8.384,-2.967 12.516,-2.648 4.132,0.316 8.168,3.398 11.6,4.523 3.433,1.125 9.994,2.373 11.818,4.145 1.823,1.771 -2.735,3.807 -3.189,5.736 -0.454,1.929 1.419,6.99 -1.263,8.435 z"
   inkscape:connector-curvature="0"
   style="fill:#fcc916" />
		<path
   id="imagebot_88"
   d="m -7606.114,-5867.286 c -2.195,1.197 -7.611,0.104 -10.685,0.498 -3.175,0.408 -6.603,3.727 -9.819,3.242 -3.115,-0.471 -5.106,-4.166 -7.381,-5.328 -2.35,-1.199 -7.122,-0.959 -8.145,-2.568 -0.991,-1.559 3.24,-4.082 4.09,-5.66 0.879,-1.629 -1.383,-4.371 0.984,-5.533 2.291,-1.125 7.348,0.438 10.383,0 3.135,-0.449 6.479,-3.152 9.722,-2.752 3.139,0.387 5.208,3.16 7.509,4.273 2.377,1.152 8.777,1.492 9.866,3.061 1.053,1.518 -5.39,3.295 -6.038,4.891 -0.671,1.645 1.78,4.636 -0.486,5.872 z"
   inkscape:connector-curvature="0"
   style="fill:#ce5c00" />
		<path
   id="imagebot_87"
   d="m -7412.738,-5731.403 c -3.439,1.82 -11.927,0.156 -16.743,0.758 -4.977,0.621 -10.348,5.67 -15.391,4.932 -4.881,-0.715 -8.002,-6.338 -11.566,-8.105 -3.683,-1.824 -11.16,-1.459 -12.764,-3.906 -1.553,-2.371 5.078,-6.211 6.41,-8.609 1.376,-2.479 -2.167,-6.65 1.542,-8.418 3.591,-1.713 11.517,0.666 16.271,0 4.913,-0.684 10.155,-4.793 15.235,-4.186 4.919,0.59 8.163,4.807 11.768,6.502 3.725,1.752 13.757,2.27 15.462,4.654 1.65,2.311 -8.445,5.014 -9.462,7.439 -1.05,2.503 2.791,7.054 -0.762,8.935 z"
   inkscape:connector-curvature="0"
   style="fill:#ce5c00" />
		<path
   id="imagebot_86"
   d="m -7514.465,-5744.728 c -2.634,1.742 -9.134,0.148 -12.822,0.725 -3.811,0.596 -7.924,5.428 -11.786,4.721 -3.737,-0.684 -6.128,-6.066 -8.857,-7.758 -2.82,-1.748 -8.547,-1.396 -9.775,-3.74 -1.189,-2.268 3.889,-5.943 4.909,-8.24 1.054,-2.371 -1.659,-6.365 1.181,-8.059 2.75,-1.637 8.819,0.639 12.461,0.01 3.763,-0.654 7.777,-4.588 11.669,-4.006 3.767,0.563 6.251,4.6 9.012,6.223 2.853,1.678 10.535,2.172 11.841,4.455 1.264,2.211 -6.468,4.799 -7.246,7.121 -0.807,2.396 2.135,6.752 -0.587,8.552 z"
   inkscape:connector-curvature="0"
   style="fill:#f57900" />
		<path
   id="imagebot_85"
   d="m -7572.704,-5778.687 c -2.479,1.729 -9.49,-0.053 -12.999,0.818 -3.509,0.871 -9.608,5.055 -13.398,4.561 -3.789,-0.492 -5.964,-4.697 -9.063,-6.125 -3.1,-1.43 -9.137,-1.613 -10.567,-3.736 -1.43,-2.123 2.272,-6.408 3.063,-8.629 0.791,-2.221 -1.635,-6.174 0.824,-7.973 2.46,-1.799 9.675,-1.373 13.327,-2.053 3.651,-0.68 7.927,-3.633 11.755,-3.258 3.828,0.375 7.151,4.053 10.264,5.43 3.113,1.377 9.443,2.592 11.011,4.705 1.568,2.113 -2.644,4.822 -3.146,7.094 -0.502,2.272 1.407,7.436 -1.071,9.166 z"
   inkscape:connector-curvature="0"
   style="fill:#ad7fa8" />
		<path
   id="imagebot_84"
   d="m -7560.632,-5867.747 c -2.156,1.178 -6.272,1.393 -9.334,1.807 -3.061,0.412 -7.542,2.395 -10.556,1.91 -3.013,-0.484 -5.759,-2.869 -7.953,-4.004 -2.194,-1.137 -6.178,-2.291 -7.106,-3.846 -0.928,-1.555 2.057,-3.951 2.786,-5.486 0.729,-1.535 -0.111,-4.533 2.136,-5.641 2.248,-1.107 7.789,-0.426 10.711,-0.922 2.922,-0.494 5.753,-2.211 8.791,-1.811 3.039,0.402 5.77,2.82 7.953,4.006 2.186,1.186 7.91,1.77 8.9,3.285 0.991,1.516 -2.092,4.014 -2.91,5.525 -0.817,1.515 -1.263,3.997 -3.418,5.177 z"
   inkscape:connector-curvature="0"
   style="fill:#f57900" />
		<path
   id="imagebot_83"
   d="m -7475.445,-5831.013 c -1.981,1.322 -7.665,-0.652 -10.401,0.053 -2.736,0.705 -8.355,4.492 -11.354,4.055 -2.998,-0.439 -4.511,-3.918 -7.031,-5.014 -2.52,-1.096 -6.991,-0.945 -8.163,-2.582 -1.172,-1.637 1.547,-5.467 2.252,-7.17 0.704,-1.705 -1.342,-4.82 0.617,-6.23 1.959,-1.412 7.905,-1.127 10.822,-1.596 2.916,-0.469 6.194,-2.715 9.247,-2.426 3.052,0.291 6.034,3.113 8.57,4.143 2.535,1.029 7.384,2.172 8.731,3.795 1.348,1.621 -2.021,3.484 -2.356,5.25 -0.336,1.767 1.048,6.398 -0.934,7.722 z"
   inkscape:connector-curvature="0"
   style="fill:#fcaf3e" />
	</g>
	<g
   id="imagebot_80"
   enable-background="new    "
   style="opacity:0.36439999;filter:url(#imagebot_81)">
		<path
   d="m -2931.674,-5952.093 c 0.278,42.605 -113.344,77.211 -253.782,77.297 -140.438,0.084 -254.511,-34.387 -254.789,-76.99 0,-0.102 0,-0.205 0,-0.307 -0.278,-42.604 113.344,-77.211 253.781,-77.295 140.437,-0.084 254.512,34.385 254.79,76.99 0,0.102 0,0.204 0,0.305 z"
   id="path3398"
   inkscape:connector-curvature="0"
   style="fill:#323232" />
	</g>
	<g
   id="g3400">
		<defs
   id="defs3402">
			<path
   id="SVGID_7_"
   d="m -3527.778,-7345.634 h 2229.352 c 11.619,0 21.039,5.757 21.039,12.856 v 1000.001 c 0,7.102 -9.42,12.857 -21.039,12.857 h -2229.352 c -11.619,0 -21.039,-5.756 -21.039,-12.857 v -1000.001 c 0,-7.099 9.42,-12.856 21.039,-12.856 z"
   inkscape:connector-curvature="0" />
		</defs>
		<clipPath
   id="SVGID_8_">
			<use
   xlink:href="#SVGID_7_"
   overflow="visible"
   id="use3406"
   style="overflow:visible"
   x="0"
   y="0"
   width="4654.0591"
   height="1703.7531" />
		</clipPath>
		
			<radialGradient
   id="imagebot_77_1_"
   cx="-11016.883"
   cy="3806.6233"
   r="284.20029"
   gradientTransform="matrix(0.8273,0.421,0.3307,-0.6498,4396.5854,-105.5403)"
   gradientUnits="userSpaceOnUse">
			<stop
   offset="0"
   style="stop-color:#FCAF3E"
   id="stop3409" />
			<stop
   offset="1"
   style="stop-color:#FFCE86"
   id="stop3411" />
		</radialGradient>
		
			<path
   id="imagebot_77"
   clip-path="url(#SVGID_8_)"
   d="m -3292.145,-7216.926 c 0,86.423 -74.628,156.482 -166.688,156.482 -92.059,0 -166.688,-70.06 -166.688,-156.482 l 0,0 c 0,-86.422 74.629,-156.481 166.688,-156.481 92.061,0 166.688,70.059 166.688,156.481 l 0,0 z"
   style="fill:url(#imagebot_77_1_);stroke:#fcaf3e;stroke-width:8.39900017;stroke-linecap:round;stroke-linejoin:round"
   inkscape:connector-curvature="0" />
	</g>
	<g
   id="imagebot_63"
   transform="matrix(-0.210623,0,0,0.556237,3836.895,603.4098)"
   style="opacity:0.69779998">
		<path
   id="imagebot_70"
   d="m 33268.648,-11552.62 c -12.957,-57.302 -65.422,-104.149 -110.758,-139.778 58.285,5.962 98.621,69.924 124.039,117.935 2.571,8.974 -2.445,22.193 -13.281,21.843 z"
   inkscape:connector-curvature="0"
   style="fill:#009800" />
		<path
   id="imagebot_69"
   d="m 33343.227,-11561.297 c 16.926,-30.074 -35.477,-114.771 -26.254,-150.66 29.289,54.481 47.238,92.354 42.016,140.913 -3.419,5.674 -10.505,6.566 -15.762,9.747 z"
   inkscape:connector-curvature="0"
   style="fill:#009800" />
		<path
   id="imagebot_68"
   d="m 33417.742,-11563.663 c 25.246,-47.252 55.258,-94.922 108.535,-113.317 -29.527,20.457 -63.098,41.022 -76.16,76.459 -6.844,14.832 -14.691,32.875 -32.375,36.858 z"
   inkscape:connector-curvature="0"
   style="fill:#009800" />
		<path
   id="imagebot_67"
   d="m 33526.516,-11554.706 c 20.262,-9.157 40.629,-61.065 69.027,-84.928 -31.305,78.414 -42.605,86.367 -69.027,84.928 z"
   inkscape:connector-curvature="0"
   style="fill:#009800" />
		<path
   id="imagebot_66"
   d="m 33383.453,-11572.234 c 12.684,-15.092 17.68,-39.51 39.273,-44.825 -11.71,15.825 -17.507,39.779 -39.273,44.825 z"
   inkscape:connector-curvature="0"
   style="fill:#009800" />
		<path
   id="imagebot_65"
   d="m 33304.656,-11597.541 c -10.246,-21.32 -21.086,-42.658 -36.164,-61.044 42.016,18.972 55.649,50.3 36.164,61.044 z"
   inkscape:connector-curvature="0"
   style="fill:#009800" />
		<path
   id="imagebot_64"
   d="m 33498.047,-11600.915 c 18.25,-21.313 39.84,-40.696 65.961,-51.726 -22.996,11.947 -42.082,44.871 -65.961,51.726 z"
   inkscape:connector-curvature="0"
   style="fill:#009800" />
	</g>
	<g
   id="imagebot_55"
   transform="matrix(-0.284483,0,0,0.391411,4986.41,824.3698)"
   style="opacity:0.69779998">
		<path
   id="imagebot_62"
   d="m 24645.352,-17146.012 c -12.955,-57.301 -65.414,-104.15 -110.756,-139.779 58.289,5.963 98.625,69.924 124.041,117.934 2.574,8.976 -2.446,22.199 -13.285,21.845 z"
   inkscape:connector-curvature="0"
   style="fill:#008c00" />
		<path
   id="imagebot_61"
   d="m 24719.936,-17154.689 c 16.92,-30.074 -35.482,-114.77 -26.258,-150.662 29.289,54.484 47.242,92.359 42.018,140.916 -3.421,5.673 -10.503,6.566 -15.76,9.746 z"
   inkscape:connector-curvature="0"
   style="fill:#008c00" />
		<path
   id="imagebot_60"
   d="m 24794.447,-17157.055 c 25.248,-47.25 55.256,-94.92 108.539,-113.318 -29.527,20.459 -63.098,41.023 -76.158,76.463 -6.846,14.83 -14.699,32.873 -32.381,36.855 z"
   inkscape:connector-curvature="0"
   style="fill:#008c00" />
		<path
   id="imagebot_59"
   d="m 24903.221,-17148.098 c 20.264,-9.156 40.633,-61.068 69.029,-84.93 -31.307,78.419 -42.604,86.372 -69.029,84.93 z"
   inkscape:connector-curvature="0"
   style="fill:#008c00" />
		<path
   id="imagebot_58"
   d="m 24760.164,-17165.627 c 12.676,-15.09 17.678,-39.512 39.268,-44.826 -11.711,15.828 -17.508,39.781 -39.268,44.826 z"
   inkscape:connector-curvature="0"
   style="fill:#008c00" />
		<path
   id="imagebot_57"
   d="m 24681.365,-17190.932 c -10.252,-21.322 -21.088,-42.66 -36.164,-61.047 42.016,18.971 55.645,50.303 36.164,61.047 z"
   inkscape:connector-curvature="0"
   style="fill:#008c00" />
		<path
   id="imagebot_56"
   d="m 24874.752,-17194.305 c 18.252,-21.318 39.844,-40.699 65.961,-51.727 -22.992,11.946 -42.078,44.87 -65.961,51.727 z"
   inkscape:connector-curvature="0"
   style="fill:#008c00" />
	</g>
	<g
   id="imagebot_47"
   transform="matrix(0.326029,0,0,0.480164,5511.95,830.7568)"
   style="opacity:0.69779998">
		<path
   id="imagebot_54"
   d="m -21402.314,-13656.999 c -12.959,-57.301 -65.418,-104.147 -110.756,-139.776 58.283,5.964 98.619,69.923 124.037,117.933 2.572,8.977 -2.446,22.196 -13.281,21.843 z"
   inkscape:connector-curvature="0"
   style="fill:#008c00" />
		<path
   id="imagebot_53"
   d="m -21327.738,-13665.676 c 16.924,-30.071 -35.477,-114.768 -26.254,-150.66 29.293,54.485 47.24,92.359 42.016,140.914 -3.419,5.675 -10.503,6.569 -15.762,9.746 z"
   inkscape:connector-curvature="0"
   style="fill:#008c00" />
		<path
   id="imagebot_52"
   d="m -21253.223,-13668.039 c 25.248,-47.253 55.258,-94.922 108.539,-113.319 -29.529,20.46 -63.098,41.025 -76.16,76.459 -6.844,14.83 -14.695,32.878 -32.379,36.86 z"
   inkscape:connector-curvature="0"
   style="fill:#008c00" />
		<path
   id="imagebot_51"
   d="m -21144.451,-13659.082 c 20.264,-9.16 40.635,-61.067 69.031,-84.928 -31.307,78.411 -42.603,86.368 -69.031,84.928 z"
   inkscape:connector-curvature="0"
   style="fill:#008c00" />
		<path
   id="imagebot_50"
   d="m -21287.51,-13676.609 c 12.682,-15.091 17.684,-39.513 39.271,-44.825 -11.71,15.823 -17.507,39.777 -39.271,44.825 z"
   inkscape:connector-curvature="0"
   style="fill:#008c00" />
		<path
   id="imagebot_49"
   d="m -21366.305,-13701.914 c -10.25,-21.326 -21.088,-42.661 -36.166,-61.047 42.018,18.972 55.647,50.301 36.166,61.047 z"
   inkscape:connector-curvature="0"
   style="fill:#008c00" />
		<path
   id="imagebot_48"
   d="m -21172.918,-13705.29 c 18.254,-21.314 39.848,-40.696 65.961,-51.724 -22.992,11.943 -42.08,44.866 -65.961,51.724 z"
   inkscape:connector-curvature="0"
   style="fill:#008c00" />
	</g>
	<g
   id="imagebot_39"
   transform="matrix(-0.192158,0,0,0.213906,5299.68,986.9968)"
   style="opacity:0.69779998">
		<path
   id="imagebot_46"
   d="m 36460.266,-32809.813 c -12.953,-57.297 -65.422,-104.148 -110.754,-139.773 58.281,5.961 98.617,69.922 124.035,117.93 2.574,8.976 -2.442,22.199 -13.281,21.843 z"
   inkscape:connector-curvature="0"
   style="fill:#008c00" />
		<path
   id="imagebot_45"
   d="m 36534.844,-32818.488 c 16.926,-30.078 -35.48,-114.773 -26.254,-150.656 29.289,54.48 47.246,92.355 42.016,140.906 -3.422,5.675 -10.501,6.574 -15.762,9.75 z"
   inkscape:connector-curvature="0"
   style="fill:#008c00" />
		<path
   id="imagebot_44"
   d="m 36609.359,-32820.852 c 25.246,-47.254 55.258,-94.926 108.535,-113.324 -29.523,20.461 -63.094,41.023 -76.152,76.461 -6.851,14.828 -14.699,32.879 -32.383,36.863 z"
   inkscape:connector-curvature="0"
   style="fill:#008c00" />
		<path
   id="imagebot_43"
   d="m 36718.129,-32811.895 c 20.262,-9.16 40.633,-61.066 69.031,-84.926 -31.305,78.415 -42.601,86.368 -69.031,84.926 z"
   inkscape:connector-curvature="0"
   style="fill:#008c00" />
		<path
   id="imagebot_42"
   d="m 36575.074,-32829.426 c 12.676,-15.086 17.68,-39.512 39.266,-44.824 -11.711,15.824 -17.504,39.781 -39.266,44.824 z"
   inkscape:connector-curvature="0"
   style="fill:#008c00" />
		<path
   id="imagebot_41"
   d="m 36496.273,-32854.727 c -10.246,-21.32 -21.086,-42.66 -36.164,-61.051 42.016,18.973 55.649,50.301 36.164,61.051 z"
   inkscape:connector-curvature="0"
   style="fill:#008c00" />
		<path
   id="imagebot_40"
   d="m 36689.664,-32858.105 c 18.258,-21.313 39.844,-40.695 65.957,-51.727 -22.992,11.941 -42.074,44.867 -65.957,51.727 z"
   inkscape:connector-curvature="0"
   style="fill:#008c00" />
	</g>
	<g
   id="imagebot_31"
   transform="matrix(0.169077,0,0,0.16319,5396.07,803.3248)"
   style="opacity:0.69779998">
		<path
   id="imagebot_38"
   d="m -41320.609,-43544.043 c -12.957,-57.305 -65.418,-104.148 -110.758,-139.777 58.289,5.961 98.621,69.918 124.043,117.938 2.57,8.976 -2.449,22.187 -13.285,21.839 z"
   inkscape:connector-curvature="0"
   style="fill:#008c00" />
		<path
   id="imagebot_37"
   d="m -41246.031,-43552.719 c 16.922,-30.078 -35.477,-114.766 -26.254,-150.656 29.293,54.48 47.242,92.348 42.016,140.914 -3.415,5.672 -10.501,6.559 -15.762,9.742 z"
   inkscape:connector-curvature="0"
   style="fill:#008c00" />
		<path
   id="imagebot_36"
   d="m -41171.52,-43555.09 c 25.246,-47.25 55.258,-94.918 108.543,-113.316 -29.535,20.469 -63.098,41.027 -76.156,76.469 -6.851,14.828 -14.699,32.874 -32.387,36.847 z"
   inkscape:connector-curvature="0"
   style="fill:#008c00" />
		<path
   id="imagebot_35"
   d="m -41062.742,-43546.125 c 20.262,-9.168 40.633,-61.074 69.027,-84.926 -31.305,78.403 -42.601,86.363 -69.027,84.926 z"
   inkscape:connector-curvature="0"
   style="fill:#008c00" />
		<path
   id="imagebot_34"
   d="m -41205.805,-43563.656 c 12.68,-15.094 17.68,-39.508 39.27,-44.824 -11.711,15.824 -17.504,39.785 -39.27,44.824 z"
   inkscape:connector-curvature="0"
   style="fill:#008c00" />
		<path
   id="imagebot_33"
   d="m -41284.602,-43588.957 c -10.246,-21.328 -21.082,-42.668 -36.164,-61.051 42.02,18.969 55.649,50.301 36.164,61.051 z"
   inkscape:connector-curvature="0"
   style="fill:#008c00" />
		<path
   id="imagebot_32"
   d="m -41091.211,-43592.332 c 18.254,-21.316 39.848,-40.695 65.961,-51.73 -22.992,11.945 -42.078,44.871 -65.961,51.73 z"
   inkscape:connector-curvature="0"
   style="fill:#008c00" />
	</g>
	<g
   id="imagebot_23"
   transform="matrix(0.38604,0,0,0.492843,3965.028,617.1158)">
		<path
   id="imagebot_30"
   d="m -18066.758,-13261.15 c -12.957,-57.301 -65.418,-104.146 -110.756,-139.778 58.285,5.965 98.621,69.927 124.039,117.935 2.573,8.975 -2.447,22.199 -13.283,21.843 z"
   inkscape:connector-curvature="0"
   style="fill:#009800" />
		<path
   id="imagebot_29"
   d="m -17992.178,-13269.825 c 16.924,-30.075 -35.479,-114.768 -26.256,-150.66 29.291,54.482 47.242,92.356 42.016,140.915 -3.418,5.671 -10.498,6.566 -15.76,9.745 z"
   inkscape:connector-curvature="0"
   style="fill:#009800" />
		<path
   id="imagebot_28"
   d="m -17917.666,-13272.191 c 25.248,-47.25 55.258,-94.921 108.539,-113.317 -29.529,20.461 -63.096,41.025 -76.156,76.462 -6.846,14.828 -14.697,32.872 -32.383,36.855 z"
   inkscape:connector-curvature="0"
   style="fill:#009800" />
		<path
   id="imagebot_27"
   d="m -17808.893,-13263.23 c 20.264,-9.163 40.633,-61.069 69.031,-84.931 -31.308,78.415 -42.605,86.369 -69.031,84.931 z"
   inkscape:connector-curvature="0"
   style="fill:#009800" />
		<path
   id="imagebot_26"
   d="m -17951.951,-13280.763 c 12.68,-15.087 17.684,-39.511 39.271,-44.821 -11.713,15.824 -17.508,39.776 -39.271,44.821 z"
   inkscape:connector-curvature="0"
   style="fill:#009800" />
		<path
   id="imagebot_25"
   d="m -18030.748,-13306.066 c -10.25,-21.321 -21.088,-42.662 -36.164,-61.046 42.016,18.97 55.646,50.301 36.164,61.046 z"
   inkscape:connector-curvature="0"
   style="fill:#009800" />
		<path
   id="imagebot_24"
   d="m -17837.361,-13309.443 c 18.254,-21.313 39.846,-40.691 65.959,-51.721 -22.991,11.94 -42.077,44.865 -65.959,51.721 z"
   inkscape:connector-curvature="0"
   style="fill:#009800" />
	</g>
	<g
   id="imagebot_4"
   transform="matrix(0.137234,0.0203209,-0.00457729,0.0689332,5024.8495,1012.6888)">
		<path
   id="imagebot_22"
   d="m -52837.984,-88592.891 c -8.371,4.672 -29.027,0.391 -40.754,1.953 -12.109,1.586 -25.176,14.563 -37.449,12.656 -11.879,-1.828 -19.473,-16.281 -28.148,-20.828 -8.965,-4.672 -27.164,-3.727 -31.066,-10.023 -3.785,-6.086 12.355,-15.945 15.598,-22.109 3.355,-6.375 -5.273,-17.094 3.758,-21.625 8.734,-4.391 28.023,1.711 39.602,0.03 11.953,-1.773 24.715,-12.328 37.078,-10.766 11.969,1.516 19.867,12.336 28.637,16.695 9.066,4.492 33.484,5.82 37.629,11.969 4.02,5.93 -20.547,12.859 -23.031,19.086 -2.554,6.446 6.794,18.141 -1.854,22.961 z"
   inkscape:connector-curvature="0"
   style="fill:#ce5c00" />
		<path
   id="imagebot_21"
   d="m -52727.422,-88658.805 c -8.551,4.555 -33.051,-2.273 -44.848,0.188 -11.797,2.422 -36.023,15.547 -48.953,14.031 -12.93,-1.516 -19.445,-13.563 -30.309,-17.359 -10.871,-3.797 -30.141,-3.273 -35.195,-8.945 -5.055,-5.648 6.672,-18.914 9.703,-24.82 3.043,-5.883 -5.777,-16.688 2.668,-21.555 8.449,-4.898 34.086,-3.898 46.652,-5.539 12.57,-1.609 26.707,-9.398 39.871,-8.383 13.156,1 26.012,10.781 36.941,14.328 10.934,3.578 31.832,7.531 37.641,13.133 5.816,5.625 -8.707,12.055 -10.156,18.18 -1.445,6.116 4.528,22.155 -4.015,26.741 z"
   inkscape:connector-curvature="0"
   style="fill:#fcc916" />
		<path
   id="imagebot_20"
   d="m -53123.809,-88494.555 c -9.59,6.711 -36.738,-0.188 -50.324,3.195 -13.582,3.352 -37.199,19.547 -51.871,17.641 -14.668,-1.914 -23.094,-18.188 -35.09,-23.711 -11.996,-5.531 -35.375,-6.234 -40.91,-14.461 -5.531,-8.234 8.801,-24.813 11.859,-33.422 3.066,-8.578 -6.332,-23.883 3.195,-30.859 9.52,-6.969 37.453,-5.32 51.594,-7.93 14.137,-2.633 30.688,-14.086 45.512,-12.625 14.82,1.445 27.676,15.703 39.727,21.016 12.055,5.344 36.563,10.047 42.633,18.203 6.066,8.188 -10.234,18.688 -12.176,27.477 -1.942,8.789 5.441,28.797 -4.149,35.476 z"
   inkscape:connector-curvature="0"
   style="fill:#ad7fa8" />
		<path
   id="imagebot_19"
   d="m -52924.648,-88438.172 c -10.758,5.859 -31.301,6.961 -46.582,9 -15.273,2.063 -37.637,11.969 -52.684,9.555 -15.035,-2.43 -28.734,-14.313 -39.691,-20.008 -10.945,-5.672 -30.82,-11.43 -35.465,-19.18 -4.629,-7.766 10.273,-19.719 13.902,-27.359 3.645,-7.68 -0.555,-22.648 10.668,-28.164 11.223,-5.523 38.867,-2.141 53.453,-4.594 14.582,-2.492 28.707,-11.047 43.875,-9.055 15.168,2.016 28.789,14.063 39.691,20.008 10.906,5.906 39.473,8.813 44.422,16.398 4.941,7.547 -10.445,20.023 -14.52,27.57 -4.089,7.548 -6.308,19.938 -17.069,25.829 z"
   inkscape:connector-curvature="0"
   style="fill:#f57900" />
		<path
   id="imagebot_18"
   d="m -53085.59,-88178.875 c -13.695,8.508 -47.484,0.734 -66.66,3.523 -19.813,2.922 -41.195,26.484 -61.27,23.055 -19.438,-3.336 -31.855,-29.602 -46.051,-37.852 -14.668,-8.539 -44.434,-6.82 -50.82,-18.258 -6.184,-11.07 20.219,-28.992 25.523,-40.188 5.477,-11.594 -8.629,-31.063 6.137,-39.328 14.297,-7.977 45.848,3.117 64.789,0.03 19.555,-3.188 40.426,-22.406 60.656,-19.555 19.578,2.758 32.496,22.438 46.848,30.359 14.824,8.18 54.77,10.602 61.563,21.75 6.57,10.781 -33.625,23.398 -37.676,34.734 -4.183,11.69 11.113,32.94 -3.039,41.729 z"
   inkscape:connector-curvature="0"
   style="fill:#ce5c00" />
		<path
   id="imagebot_17"
   d="m -52877.965,-88300.602 c -11.332,6.68 -43.379,-0.219 -59.41,3.172 -16.043,3.367 -43.926,19.555 -61.242,17.656 -17.32,-1.914 -27.266,-18.195 -41.434,-23.711 -14.16,-5.547 -41.758,-6.25 -48.293,-14.461 -6.535,-8.219 10.379,-24.82 14,-33.43 3.617,-8.602 -7.48,-23.891 3.766,-30.859 11.246,-6.968 44.223,-5.297 60.91,-7.953 16.695,-2.625 36.238,-14.055 53.734,-12.609 17.496,1.446 32.688,15.695 46.914,21.016 14.223,5.328 43.156,10.031 50.32,18.234 7.16,8.172 -12.082,18.664 -14.371,27.445 -2.296,8.805 6.426,28.789 -4.894,35.5 z"
   inkscape:connector-curvature="0"
   style="fill:#3465a4" />
		<path
   id="imagebot_16"
   d="m -52685.449,-88203.023 c -13.559,7.398 -52.449,-3.664 -71.168,0.297 -18.727,3.93 -57.176,25.125 -77.688,22.672 -20.52,-2.445 -30.867,-21.898 -48.117,-28.031 -17.238,-6.141 -47.824,-5.313 -55.844,-14.445 -8.027,-9.172 10.578,-30.578 15.398,-40.102 4.82,-9.555 -9.176,-26.992 4.227,-34.875 13.406,-7.891 54.09,-6.289 74.043,-8.906 19.949,-2.625 42.387,-15.195 63.27,-13.586 20.883,1.641 41.293,17.406 58.633,23.18 17.359,5.758 50.531,12.164 59.746,21.234 9.223,9.063 -13.824,19.484 -16.113,29.367 -2.297,9.89 7.171,35.796 -6.387,43.195 z"
   inkscape:connector-curvature="0"
   style="fill:#fcaf3e" />
		<path
   id="imagebot_15"
   d="m -52399.59,-88216.43 c -16.25,10.43 -56.359,0.891 -79.117,4.336 -23.512,3.563 -48.891,32.523 -72.719,28.297 -23.066,-4.109 -37.805,-36.375 -54.652,-46.508 -17.398,-10.484 -52.738,-8.367 -60.309,-22.43 -7.344,-13.617 23.988,-35.625 30.289,-49.414 6.5,-14.211 -10.238,-38.148 7.285,-48.305 16.969,-9.82 54.414,3.82 76.883,0.03 23.215,-3.922 47.98,-27.516 71.992,-24.023 23.242,3.375 38.566,27.586 55.598,37.328 17.602,10.055 65.004,12.992 73.063,26.688 7.801,13.25 -39.898,28.789 -44.711,42.703 -4.961,14.383 13.187,40.485 -3.602,51.297 z"
   inkscape:connector-curvature="0"
   style="fill:#cc0000" />
		<path
   id="imagebot_14"
   d="m -52634.883,-87924.336 c -15.805,8.711 -61.141,-4.305 -82.961,0.344 -21.836,4.648 -66.66,29.594 -90.578,26.703 -23.914,-2.867 -35.988,-25.805 -56.082,-33.023 -20.109,-7.219 -55.77,-6.227 -65.117,-17.016 -9.347,-10.789 12.34,-36.023 17.957,-47.227 5.617,-11.234 -10.691,-31.781 4.93,-41.063 15.621,-9.313 63.059,-7.43 86.316,-10.516 23.266,-3.094 49.414,-17.883 73.766,-15.969 24.352,1.922 48.141,20.492 68.363,27.281 20.222,6.789 58.898,14.313 69.645,25 10.754,10.688 -16.121,22.969 -18.793,34.609 -2.672,11.64 8.367,42.166 -7.446,50.877 z"
   inkscape:connector-curvature="0"
   style="fill:#fcaf3e" />
		<path
   id="imagebot_13"
   d="m -52098.965,-88017.07 c -14.965,9.398 -57.32,-0.273 -78.52,4.445 -21.195,4.75 -58.047,27.484 -80.941,24.828 -22.891,-2.688 -36.035,-25.563 -54.754,-33.328 -18.719,-7.773 -55.191,-8.781 -63.832,-20.313 -8.641,-11.539 13.727,-34.844 18.504,-46.938 4.781,-12.094 -9.883,-33.578 4.98,-43.344 14.855,-9.797 58.441,-7.484 80.508,-11.18 22.063,-3.703 47.887,-19.758 71.008,-17.703 23.125,2.023 43.203,22.023 62.008,29.516 18.801,7.492 57.047,14.094 66.512,25.586 9.465,11.492 -15.969,26.242 -19,38.578 -3.028,12.345 8.5,40.454 -6.473,49.853 z"
   inkscape:connector-curvature="0"
   style="fill:#ad7fa8" />
		<path
   id="imagebot_12"
   d="m -52296.609,-87887.516 c -18.316,10.297 -53.309,12.172 -79.332,15.789 -26.008,3.617 -64.105,20.938 -89.723,16.703 -25.609,-4.234 -48.949,-25.094 -67.605,-35.008 -18.652,-9.945 -52.508,-20.023 -60.402,-33.617 -7.898,-13.625 17.492,-34.57 23.684,-47.984 6.192,-13.414 -0.945,-39.641 18.156,-49.328 19.105,-9.68 66.199,-3.727 91.039,-8.047 24.84,-4.32 48.902,-19.352 74.723,-15.828 25.828,3.5 49.043,24.648 67.605,35.016 18.574,10.359 67.234,15.477 75.652,28.727 8.422,13.242 -17.777,35.07 -24.738,48.32 -6.946,13.234 -10.731,34.953 -29.059,45.257 z"
   inkscape:connector-curvature="0"
   style="fill:#f57900" />
		<path
   id="imagebot_11"
   d="m -52656.23,-88496.961 c -13.387,7.008 -51.77,-3.438 -70.254,0.289 -18.484,3.742 -56.449,23.773 -76.699,21.445 -20.254,-2.328 -30.473,-20.711 -47.496,-26.516 -17.023,-5.805 -47.223,-5.008 -55.141,-13.664 -7.918,-8.664 10.449,-28.922 15.207,-37.945 4.758,-9 -9.055,-25.492 4.176,-32.969 13.227,-7.438 53.398,-5.938 73.098,-8.43 19.699,-2.461 41.848,-14.375 62.465,-12.828 20.617,1.539 40.762,16.461 57.887,21.922 17.129,5.43 49.883,11.477 58.977,20.07 9.109,8.594 -13.645,18.445 -15.91,27.781 -2.265,9.336 7.076,33.845 -6.31,40.845 z"
   inkscape:connector-curvature="0"
   style="fill:#fcc916" />
		<path
   id="imagebot_10"
   d="m -53177.559,-88687.07 c -10.957,5.977 -37.98,0.508 -53.316,2.484 -15.852,2.031 -32.953,18.578 -49.016,16.172 -15.543,-2.359 -25.484,-20.789 -36.836,-26.594 -11.73,-5.977 -35.543,-4.797 -40.648,-12.813 -4.941,-7.781 16.172,-20.375 20.418,-28.258 4.387,-8.125 -6.902,-21.797 4.918,-27.602 11.426,-5.609 36.66,2.172 51.809,0 15.648,-2.234 32.34,-15.711 48.523,-13.711 15.664,1.93 25.988,15.773 37.473,21.313 11.863,5.766 43.813,7.453 49.242,15.289 5.254,7.57 -26.898,16.43 -30.145,24.383 -3.34,8.243 8.895,23.165 -2.422,29.337 z"
   inkscape:connector-curvature="0"
   style="fill:#ce5c00" />
		<path
   id="imagebot_9"
   d="m -52446.824,-88081.492 c -17.16,7.75 -59.523,0.656 -83.563,3.211 -24.832,2.648 -51.641,24.18 -76.809,21.031 -24.352,-3.055 -39.93,-27.016 -57.723,-34.555 -18.379,-7.781 -55.699,-6.219 -63.703,-16.664 -7.754,-10.094 25.344,-26.484 31.992,-36.719 6.871,-10.555 -10.816,-28.344 7.699,-35.875 17.914,-7.32 57.469,2.836 81.207,0 24.512,-2.922 50.676,-20.438 76.031,-17.852 24.547,2.508 40.738,20.516 58.734,27.734 18.582,7.469 68.652,9.68 77.16,19.836 8.242,9.844 -42.141,21.383 -47.219,31.719 -5.248,10.696 13.928,30.095 -3.806,38.126 z"
   inkscape:connector-curvature="0"
   style="fill:#ce5c00" />
		<path
   id="imagebot_8"
   d="m -52845.418,-88095.633 c -13.145,8.695 -45.582,0.75 -63.988,3.625 -19.027,2.977 -39.551,27.07 -58.824,23.547 -18.652,-3.398 -30.582,-30.258 -44.207,-38.703 -14.074,-8.719 -42.66,-6.977 -48.785,-18.656 -5.934,-11.344 19.406,-29.664 24.504,-41.141 5.254,-11.836 -8.289,-31.758 5.887,-40.211 13.73,-8.188 44.02,3.195 62.195,0.02 18.777,-3.273 38.809,-22.891 58.227,-20 18.801,2.82 31.199,22.961 44.984,31.055 14.227,8.383 52.578,10.852 59.094,22.242 6.301,11.039 -32.277,23.938 -36.168,35.539 -4.021,11.954 10.667,33.696 -2.919,42.68 z"
   inkscape:connector-curvature="0"
   style="fill:#f57900" />
		<path
   id="imagebot_7"
   d="m -52585.047,-88345.219 c -13.738,8.383 -52.633,-0.266 -72.094,3.969 -19.457,4.234 -53.293,24.578 -74.309,22.188 -21.016,-2.39 -33.082,-22.859 -50.27,-29.805 -17.191,-6.945 -50.68,-7.844 -58.609,-18.172 -7.93,-10.32 12.602,-31.164 16.988,-41.953 4.391,-10.813 -9.074,-30.047 4.57,-38.773 13.648,-8.758 53.66,-6.695 73.914,-10 20.258,-3.313 43.973,-17.672 65.195,-15.852 21.238,1.813 39.668,19.727 56.926,26.43 17.27,6.695 52.383,12.609 61.066,22.883 8.695,10.273 -14.66,23.445 -17.438,34.492 -2.783,11.046 7.807,36.179 -5.939,44.593 z"
   inkscape:connector-curvature="0"
   style="fill:#ad7fa8" />
		<path
   id="imagebot_6"
   d="m -53063.703,-88596.453 c -10.754,5.891 -31.301,6.961 -46.578,9.031 -15.277,2.039 -37.637,11.945 -52.684,9.523 -15.039,-2.422 -28.734,-14.313 -39.691,-19.977 -10.957,-5.672 -30.832,-11.43 -35.465,-19.211 -4.637,-7.758 10.266,-19.719 13.902,-27.359 3.637,-7.672 -0.559,-22.648 10.668,-28.164 11.215,-5.516 38.867,-2.133 53.441,-4.594 14.594,-2.461 28.715,-11.039 43.879,-9.023 15.164,1.992 28.789,14.07 39.695,19.977 10.906,5.907 39.477,8.82 44.418,16.398 4.949,7.555 -10.441,20.023 -14.523,27.57 -4.082,7.555 -6.308,19.938 -17.062,25.829 z"
   inkscape:connector-curvature="0"
   style="fill:#f57900" />
		<path
   id="imagebot_5"
   d="m -53095.145,-88372.727 c -9.891,6.633 -38.25,-3.227 -51.91,0.289 -13.66,3.516 -41.707,22.406 -56.668,20.219 -14.965,-2.195 -22.512,-19.547 -35.09,-25.016 -12.578,-5.477 -34.898,-4.703 -40.742,-12.898 -5.852,-8.164 7.723,-27.266 11.238,-35.781 3.516,-8.492 -6.695,-24.039 3.078,-31.086 9.777,-7.047 39.453,-5.625 54.016,-7.961 14.551,-2.336 30.914,-13.563 46.148,-12.102 15.234,1.461 30.113,15.516 42.773,20.68 12.652,5.141 36.848,10.844 43.57,18.922 6.73,8.102 -10.086,17.398 -11.758,26.219 -1.674,8.82 5.228,31.922 -4.655,38.515 z"
   inkscape:connector-curvature="0"
   style="fill:#fcaf3e" />
	</g>
	<path
   id="imagebot_3"
   enable-background="new    "
   d="m -1362.748,-6384.256 c 1.521,0.316 1.899,1.041 3.18,2.127 1.66,1.865 5.03,7.445 4.65,8.359 -0.5,1.643 -4.73,-7.674 -7.83,-10.486 z m 28.59,4.062 c -3.62,6.717 -3.96,7.221 -6.78,7.123 0.601,-1.24 2.32,-2.25 3.53,-3.428 1.28,-1.253 1.979,-3.601 3.25,-3.695 z m -12.71,0.244 c 4.12,4.391 4.55,5.971 3.859,6.463 -1.269,0.479 -0.989,-0.767 -3.859,-6.463 z m -7.69,0.944 c 1.01,-0.17 1.75,1.35 2.149,2.594 1.03,3.174 1.04,2.715 0.351,2.984 -0.961,0.371 -0.951,-2.867 -2.5,-5.578 z m -6.82,-0.293 c 1.06,0.031 1.609,1.318 2.359,2.504 0.74,2.264 2.92,3.67 1.391,3.756 -1.53,0.083 -2.58,-3.575 -3.75,-6.26 z m 11.359,0.871 c 3.351,3.639 4.061,4.756 2.721,4.906 -0.87,0.096 -0.93,-0.793 -1.92,-2.287 -0.64,-0.963 -1.43,-1.809 -0.801,-2.619 z"
   inkscape:connector-curvature="0"
   style="opacity:0.69800002;fill:#1e9e00" />
	<title
   id="title3482">Layer 1</title>
	<g
   id="imagebot_174"
   transform="matrix(0.411485,0,0,0.411485,6341.549,463.771)">
		<path
   id="imagebot_175"
   d="m -19313.09,-17569.721 c -94.877,0 -178.408,43.141 -226.939,108.406 -152.311,26.531 -267.342,145.77 -267.342,288.75 0,76.828 33.232,146.791 87.594,199.217 -1.229,10.58 -1.875,21.336 -1.875,32.221 0,164.021 143.361,297.123 320,297.123 87.113,0 166.123,-32.381 223.846,-84.873 39.23,17.852 82.357,27.748 127.592,27.748 181.371,0 328.564,-158.748 328.564,-354.313 0,-195.565 -147.193,-354.281 -328.564,-354.281 -2.303,0 -4.613,0.04 -6.906,0.1 -37.267,-93.221 -137.833,-160.094 -255.97,-160.094 z"
   inkscape:connector-curvature="0"
   style="fill:#4e9a06" />
		
			<linearGradient
   id="imagebot_176_1_"
   gradientUnits="userSpaceOnUse"
   x1="-73499.711"
   y1="46068.301"
   x2="-73569.875"
   y2="46068.301"
   gradientTransform="matrix(0.4115,0,0,-0.4115,12576.603,1900.9883)">
			<stop
   offset="0"
   style="stop-color:#458905"
   id="stop3487" />
			<stop
   offset="1"
   style="stop-color:#4E9A06;stop-opacity:0"
   id="stop3489" />
		</linearGradient>
		<path
   id="imagebot_176"
   d="m -18721.65,-17055.428 c 0,195.67 -147.109,354.289 -328.576,354.289 -181.467,0 -328.576,-158.619 -328.576,-354.289 0,-195.668 147.109,-354.289 328.576,-354.289 181.467,0 328.576,158.621 328.576,354.289 z"
   style="fill:url(#imagebot_176_1_)"
   inkscape:connector-curvature="0" />
		
			<linearGradient
   id="imagebot_177_1_"
   gradientUnits="userSpaceOnUse"
   x1="-74638.867"
   y1="46734.879"
   x2="-74577.547"
   y2="46734.879"
   gradientTransform="matrix(0.4115,0,0,-0.4115,12576.603,1900.9883)">
			<stop
   offset="0"
   style="stop-color:#69D007"
   id="stop3493" />
			<stop
   offset="1"
   style="stop-color:#4E9A06;stop-opacity:0"
   id="stop3495" />
		</linearGradient>
		<path
   id="imagebot_177"
   d="m -19041.652,-17329.713 c 0,132.549 -121.523,240.002 -271.43,240.002 -149.907,0 -271.432,-107.453 -271.432,-240.002 l 0,0 c 0,-132.549 121.525,-240 271.432,-240 149.907,0 271.43,107.451 271.43,240 z"
   style="fill:url(#imagebot_177_1_)"
   inkscape:connector-curvature="0" />
		
			<linearGradient
   id="imagebot_178_1_"
   gradientUnits="userSpaceOnUse"
   x1="-75582.07"
   y1="46352.984"
   x2="-75202.055"
   y2="46352.984"
   gradientTransform="matrix(0.4115,0,0,-0.4115,12576.603,1900.9883)">
			<stop
   offset="0"
   style="stop-color:#69D007"
   id="stop3499" />
			<stop
   offset="1"
   style="stop-color:#4E9A06;stop-opacity:0"
   id="stop3501" />
		</linearGradient>
		<path
   id="imagebot_178"
   d="m -19144.512,-17172.568 c 0,162.527 -148.387,294.285 -331.43,294.285 -183.045,0 -331.43,-131.758 -331.43,-294.285 0,-162.531 148.385,-294.287 331.43,-294.287 183.044,0 331.43,131.755 331.43,294.287 z"
   style="fill:url(#imagebot_178_1_)"
   inkscape:connector-curvature="0" />
		
			<linearGradient
   id="imagebot_179_1_"
   gradientUnits="userSpaceOnUse"
   x1="-75242.188"
   y1="45790.555"
   x2="-74844.625"
   y2="45790.555"
   gradientTransform="matrix(0.4115,0,0,-0.4115,12576.603,1900.9883)">
			<stop
   offset="0"
   style="stop-color:#458905"
   id="stop3505" />
			<stop
   offset="1"
   style="stop-color:#4E9A06;stop-opacity:0"
   id="stop3507" />
		</linearGradient>
		<path
   id="imagebot_179"
   enable-background="new    "
   d="m -19081.652,-16941.137 c 0,164.107 -143.268,297.143 -320,297.143 -176.73,0 -320,-133.035 -320,-297.143 0,-164.109 143.27,-297.143 320,-297.143 176.732,0 320,133.034 320,297.143 z"
   style="opacity:0.31110002;fill:url(#imagebot_179_1_)"
   inkscape:connector-curvature="0" />
		
			<linearGradient
   id="imagebot_180_1_"
   gradientUnits="userSpaceOnUse"
   x1="-5010.5684"
   y1="1961.9011"
   x2="-5010.0679"
   y2="1961.9011"
   gradientTransform="matrix(141.5415,0,0,-372.5537,689872.69,714547.13)">
			<stop
   offset="0"
   style="stop-color:#8F5902"
   id="stop3511" />
			<stop
   offset="1"
   style="stop-color:#724701"
   id="stop3513" />
		</linearGradient>
		<path
   id="imagebot_180"
   d="m -19417.188,-16817.912 c 167.684,278.801 150.514,-74.754 238.398,44.447 -61.619,349.51 50.508,480.832 12.119,848.526 -123.238,44.446 -110.107,-46.469 -335.369,-24.245 -7.069,-341.431 82.835,-626.295 84.852,-868.728 z"
   style="fill:url(#imagebot_180_1_)"
   inkscape:connector-curvature="0" />
	</g>
	<g
   id="imagebot_183"
   enable-background="new    "
   style="opacity:0.36439999;filter:url(#imagebot_81)">
		<path
   d="m -1409.593,-6097.61 c 0.266,39.064 -103.908,70.799 -232.68,70.879 -128.771,0.08 -233.375,-31.523 -233.641,-70.588 -10e-4,-0.098 -10e-4,-0.195 0,-0.291 -0.266,-39.066 103.908,-70.801 232.68,-70.881 128.772,-0.08 233.375,31.523 233.641,70.588 0,0.098 0,0.195 0,0.293 z"
   id="path3517"
   inkscape:connector-curvature="0"
   style="fill:#323232" />
	</g>
	<g
   id="imagebot_184"
   transform="matrix(0.137234,0.0203209,-0.00457729,0.0689332,5429.398,1075.8221)">
		<path
   id="imagebot_185"
   d="m -52837.984,-88592.898 c -8.367,4.672 -29.035,0.398 -40.75,1.953 -12.117,1.586 -25.184,14.563 -37.453,12.656 -11.887,-1.828 -19.477,-16.273 -28.152,-20.805 -8.961,-4.695 -27.16,-3.75 -31.07,-10.047 -3.773,-6.086 12.363,-15.945 15.602,-22.109 3.355,-6.344 -5.266,-17.063 3.762,-21.625 8.734,-4.391 28.023,1.711 39.594,0.03 11.953,-1.766 24.719,-12.305 37.086,-10.766 11.965,1.516 19.859,12.367 28.637,16.719 9.063,4.5 33.484,5.828 37.633,11.945 4.012,5.93 -20.559,12.883 -23.031,19.109 -2.565,6.423 6.79,18.118 -1.858,22.939 z"
   inkscape:connector-curvature="0"
   style="fill:#ce5c00" />
		<path
   id="imagebot_186"
   d="m -52727.43,-88658.813 c -8.547,4.586 -33.043,-2.242 -44.844,0.188 -11.789,2.422 -36.023,15.547 -48.945,14.031 -12.934,-1.516 -19.453,-13.563 -30.32,-17.359 -10.863,-3.797 -30.129,-3.273 -35.188,-8.945 -5.055,-5.656 6.672,-18.914 9.707,-24.797 3.031,-5.906 -5.781,-16.68 2.668,-21.578 8.438,-4.867 34.074,-3.898 46.652,-5.508 12.57,-1.641 26.699,-9.406 39.859,-8.414 13.164,1.023 26.016,10.781 36.949,14.328 10.938,3.578 31.832,7.531 37.641,13.156 5.809,5.602 -8.711,12.063 -10.152,18.18 -1.449,6.093 4.516,22.133 -4.027,26.718 z"
   inkscape:connector-curvature="0"
   style="fill:#fcc916" />
		<path
   id="imagebot_187"
   d="m -53123.813,-88494.531 c -9.59,6.68 -36.742,-0.219 -50.32,3.156 -13.586,3.383 -37.203,19.555 -51.871,17.648 -14.672,-1.906 -23.094,-18.188 -35.09,-23.711 -11.996,-5.531 -35.375,-6.234 -40.914,-14.461 -5.535,-8.203 8.801,-24.813 11.863,-33.391 3.059,-8.609 -6.332,-23.914 3.191,-30.891 9.523,-6.945 37.461,-5.289 51.59,-7.922 14.145,-2.641 30.691,-14.07 45.512,-12.625 14.824,1.438 27.688,15.695 39.734,21.008 12.047,5.344 36.555,10.055 42.629,18.234 6.063,8.188 -10.23,18.656 -12.18,27.445 -1.94,8.791 5.45,28.799 -4.144,35.51 z"
   inkscape:connector-curvature="0"
   style="fill:#ad7fa8" />
		<path
   id="imagebot_188"
   d="m -52924.648,-88438.18 c -10.762,5.891 -31.309,6.961 -46.578,9.023 -15.277,2.039 -37.645,11.953 -52.684,9.523 -15.039,-2.422 -28.742,-14.305 -39.691,-19.977 -10.949,-5.664 -30.832,-11.422 -35.465,-19.203 -4.637,-7.758 10.266,-19.719 13.902,-27.367 3.637,-7.672 -0.559,-22.641 10.66,-28.156 11.223,-5.523 38.867,-2.141 53.457,-4.594 14.578,-2.461 28.707,-11.047 43.875,-9.031 15.16,1.992 28.793,14.07 39.691,19.977 10.898,5.914 39.477,8.82 44.418,16.406 4.941,7.555 -10.441,20.023 -14.523,27.57 -4.082,7.547 -6.301,19.939 -17.062,25.829 z"
   inkscape:connector-curvature="0"
   style="fill:#f57900" />
		<path
   id="imagebot_189"
   d="m -53085.59,-88178.883 c -13.691,8.508 -47.484,0.734 -66.66,3.555 -19.813,2.891 -41.199,26.484 -61.27,23.023 -19.438,-3.344 -31.863,-29.594 -46.059,-37.852 -14.664,-8.516 -44.43,-6.82 -50.816,-18.258 -6.184,-11.063 20.215,-28.992 25.52,-40.188 5.48,-11.586 -8.621,-31.063 6.148,-39.328 14.293,-7.984 45.844,3.117 64.777,0.03 19.555,-3.188 40.434,-22.375 60.66,-19.555 19.582,2.758 32.492,22.438 46.848,30.359 14.832,8.18 54.777,10.602 61.566,21.75 6.566,10.781 -33.633,23.43 -37.68,34.734 -4.178,11.69 11.118,32.964 -3.034,41.729 z"
   inkscape:connector-curvature="0"
   style="fill:#ce5c00" />
		<path
   id="imagebot_190"
   d="m -52877.969,-88300.609 c -11.328,6.68 -43.379,-0.188 -59.414,3.172 -16.035,3.367 -43.914,19.555 -61.242,17.664 -17.313,-1.93 -27.262,-18.203 -41.422,-23.719 -14.16,-5.547 -41.766,-6.25 -48.305,-14.461 -6.535,-8.219 10.387,-24.828 14,-33.43 3.621,-8.57 -7.469,-23.891 3.77,-30.859 11.25,-6.969 44.227,-5.297 60.918,-7.93 16.691,-2.648 36.227,-14.078 53.73,-12.633 17.5,1.469 32.684,15.695 46.906,21.023 14.234,5.352 43.168,10.055 50.328,18.227 7.16,8.172 -12.086,18.664 -14.375,27.469 -2.292,8.781 6.43,28.789 -4.894,35.477 z"
   inkscape:connector-curvature="0"
   style="fill:#3465a4" />
		<path
   id="imagebot_191"
   d="m -52685.457,-88203.031 c -13.559,7.398 -52.445,-3.633 -71.164,0.297 -18.719,3.961 -57.18,25.133 -77.691,22.68 -20.511,-2.453 -30.867,-21.898 -48.105,-28.039 -17.25,-6.133 -47.832,-5.281 -55.852,-14.445 -8.027,-9.141 10.586,-30.578 15.406,-40.102 4.82,-9.524 -9.184,-26.961 4.215,-34.852 13.406,-7.891 54.094,-6.313 74.051,-8.938 19.953,-2.617 42.383,-15.18 63.266,-13.547 20.891,1.609 41.297,17.406 58.641,23.148 17.348,5.766 50.523,12.164 59.742,21.234 9.227,9.063 -13.824,19.484 -16.121,29.367 -2.298,9.892 7.178,35.798 -6.388,43.197 z"
   inkscape:connector-curvature="0"
   style="fill:#fcaf3e" />
		<path
   id="imagebot_192"
   d="m -52399.59,-88216.438 c -16.254,10.43 -56.359,0.891 -79.113,4.336 -23.52,3.563 -48.898,32.547 -72.723,28.297 -23.063,-4.078 -37.809,-36.367 -54.652,-46.508 -17.398,-10.484 -52.738,-8.367 -60.316,-22.422 -7.332,-13.594 23.996,-35.633 30.297,-49.391 6.5,-14.242 -10.238,-38.18 7.285,-48.336 16.965,-9.813 54.406,3.828 76.883,0.03 23.211,-3.922 47.984,-27.492 71.996,-24.031 23.238,3.406 38.563,27.594 55.598,37.336 17.598,10.055 65.004,13.023 73.063,26.711 7.797,13.258 -39.91,28.766 -44.719,42.68 -4.958,14.383 13.19,40.508 -3.599,51.297 z"
   inkscape:connector-curvature="0"
   style="fill:#cc0000" />
		<path
   id="imagebot_193"
   d="m -52634.883,-87924.344 c -15.805,8.711 -61.141,-4.305 -82.969,0.344 -21.824,4.648 -66.648,29.594 -90.57,26.727 -23.922,-2.891 -35.984,-25.828 -56.086,-33.047 -20.102,-7.219 -55.766,-6.227 -65.117,-17.016 -9.348,-10.758 12.348,-35.992 17.965,-47.227 5.617,-11.235 -10.703,-31.758 4.922,-41.063 15.629,-9.281 63.055,-7.398 86.32,-10.516 23.266,-3.094 49.414,-17.883 73.758,-15.961 24.359,1.914 48.141,20.484 68.371,27.273 20.223,6.789 58.902,14.313 69.645,25 10.746,10.688 -16.125,22.977 -18.797,34.609 -2.672,11.643 8.367,42.166 -7.442,50.877 z"
   inkscape:connector-curvature="0"
   style="fill:#fcaf3e" />
		<path
   id="imagebot_194"
   d="m -52098.965,-88017.078 c -14.969,9.398 -57.32,-0.273 -78.523,4.445 -21.191,4.75 -58.047,27.516 -80.938,24.828 -22.891,-2.688 -36.035,-25.563 -54.75,-33.328 -18.719,-7.773 -55.203,-8.781 -63.84,-20.313 -8.641,-11.539 13.723,-34.844 18.5,-46.938 4.785,-12.063 -9.871,-33.555 4.988,-43.344 14.859,-9.797 58.445,-7.453 80.508,-11.156 22.059,-3.727 47.887,-19.781 71.012,-17.727 23.121,2.023 43.195,22.031 61.996,29.516 18.809,7.492 57.051,14.094 66.52,25.586 9.465,11.492 -15.973,26.242 -19.008,38.586 -3.023,12.368 8.508,40.446 -6.465,49.845 z"
   inkscape:connector-curvature="0"
   style="fill:#ad7fa8" />
		<path
   id="imagebot_195"
   d="m -52296.609,-87887.523 c -18.324,10.297 -53.313,12.172 -79.328,15.789 -26.02,3.617 -64.117,20.945 -89.734,16.703 -25.609,-4.234 -48.938,-25.063 -67.602,-35.008 -18.648,-9.945 -52.5,-20.023 -60.398,-33.617 -7.895,-13.602 17.484,-34.539 23.676,-47.984 6.199,-13.414 -0.938,-39.641 18.168,-49.328 19.102,-9.656 66.195,-3.703 91.027,-8.047 24.844,-4.32 48.906,-19.344 74.734,-15.828 25.82,3.523 49.031,24.648 67.602,35.016 18.57,10.359 67.234,15.477 75.648,28.727 8.426,13.266 -17.781,35.102 -24.734,48.32 -6.95,13.233 -10.731,34.952 -29.059,45.257 z"
   inkscape:connector-curvature="0"
   style="fill:#f57900" />
		<path
   id="imagebot_196"
   d="m -52656.23,-88496.969 c -13.383,7.008 -51.773,-3.438 -70.254,0.281 -18.488,3.758 -56.445,23.781 -76.707,21.453 -20.25,-2.305 -30.465,-20.711 -47.492,-26.516 -17.023,-5.805 -47.219,-5.008 -55.137,-13.664 -7.918,-8.664 10.449,-28.922 15.203,-37.914 4.766,-9.031 -9.059,-25.523 4.18,-32.969 13.23,-7.469 53.398,-5.969 73.098,-8.461 19.703,-2.461 41.84,-14.344 62.465,-12.828 20.617,1.539 40.754,16.484 57.887,21.922 17.133,5.461 49.883,11.5 58.977,20.07 9.105,8.594 -13.652,18.445 -15.906,27.781 -2.268,9.369 7.076,33.869 -6.314,40.845 z"
   inkscape:connector-curvature="0"
   style="fill:#fcc916" />
		<path
   id="imagebot_197"
   d="m -53177.559,-88687.086 c -10.957,5.984 -37.98,0.516 -53.32,2.492 -15.852,2.039 -32.953,18.609 -49.012,16.172 -15.547,-2.328 -25.484,-20.789 -36.836,-26.594 -11.727,-5.977 -35.539,-4.766 -40.648,-12.813 -4.941,-7.781 16.172,-20.375 20.414,-28.227 4.383,-8.148 -6.898,-21.828 4.914,-27.633 11.434,-5.609 36.672,2.195 51.813,0.02 15.652,-2.258 32.336,-15.734 48.523,-13.734 15.66,1.93 25.992,15.773 37.48,21.336 11.852,5.742 43.805,7.43 49.23,15.266 5.254,7.578 -26.898,16.461 -30.133,24.414 -3.339,8.212 8.884,23.134 -2.425,29.298 z"
   inkscape:connector-curvature="0"
   style="fill:#ce5c00" />
		<path
   id="imagebot_198"
   d="m -52446.824,-88081.5 c -17.168,7.75 -59.523,0.656 -83.563,3.211 -24.832,2.648 -51.641,24.18 -76.805,21.031 -24.363,-3.047 -39.941,-27.016 -57.727,-34.555 -18.383,-7.781 -55.699,-6.219 -63.703,-16.664 -7.754,-10.094 25.348,-26.484 31.992,-36.688 6.863,-10.578 -10.82,-28.375 7.699,-35.906 17.918,-7.289 57.465,2.844 81.199,0 24.52,-2.891 50.676,-20.438 76.039,-17.828 24.551,2.516 40.734,20.492 58.73,27.711 18.586,7.469 68.656,9.68 77.164,19.836 8.242,9.867 -42.148,21.383 -47.223,31.742 -5.244,10.672 13.928,30.071 -3.802,38.102 z"
   inkscape:connector-curvature="0"
   style="fill:#ce5c00" />
		<path
   id="imagebot_199"
   d="m -52845.422,-88095.633 c -13.145,8.719 -45.574,0.742 -63.988,3.617 -19.023,2.969 -39.551,27.102 -58.824,23.578 -18.652,-3.43 -30.586,-30.289 -44.203,-38.742 -14.082,-8.711 -42.656,-6.969 -48.781,-18.656 -5.945,-11.305 19.402,-29.656 24.492,-41.133 5.262,-11.836 -8.281,-31.758 5.898,-40.219 13.723,-8.148 44.012,3.211 62.188,0.03 18.777,-3.266 38.809,-22.891 58.23,-19.969 18.797,2.789 31.195,22.93 44.98,31.055 14.23,8.352 52.578,10.82 59.098,22.211 6.305,11.039 -32.281,23.969 -36.172,35.547 -4.016,11.977 10.672,33.711 -2.918,42.68 z"
   inkscape:connector-curvature="0"
   style="fill:#f57900" />
		<path
   id="imagebot_200"
   d="m -52585.047,-88345.227 c -13.742,8.414 -52.637,-0.266 -72.094,3.969 -19.465,4.234 -53.297,24.578 -74.313,22.188 -21.016,-2.39 -33.074,-22.828 -50.273,-29.805 -17.184,-6.945 -50.672,-7.844 -58.602,-18.172 -7.93,-10.32 12.594,-31.164 16.988,-41.953 4.387,-10.813 -9.07,-30.023 4.57,-38.773 13.641,-8.758 53.66,-6.672 73.914,-10.008 20.258,-3.305 43.965,-17.664 65.195,-15.844 21.238,1.844 39.664,19.727 56.93,26.43 17.258,6.695 52.375,12.609 61.063,22.883 8.691,10.273 -14.66,23.445 -17.441,34.492 -2.785,11.054 7.801,36.179 -5.937,44.593 z"
   inkscape:connector-curvature="0"
   style="fill:#ad7fa8" />
		<path
   id="imagebot_201"
   d="m -53063.711,-88596.461 c -10.754,5.891 -31.297,6.961 -46.578,9.031 -15.273,2.063 -37.637,11.945 -52.684,9.523 -15.035,-2.398 -28.734,-14.313 -39.688,-19.977 -10.949,-5.672 -30.824,-11.43 -35.469,-19.18 -4.629,-7.789 10.273,-19.719 13.902,-27.391 3.645,-7.648 -0.555,-22.617 10.668,-28.164 11.223,-5.516 38.867,-2.109 53.453,-4.594 14.582,-2.453 28.707,-11.039 43.875,-9.023 15.164,1.992 28.789,14.07 39.691,19.977 10.906,5.906 39.473,8.852 44.422,16.398 4.941,7.555 -10.445,20.023 -14.52,27.57 -4.088,7.557 -6.306,19.971 -17.072,25.83 z"
   inkscape:connector-curvature="0"
   style="fill:#f57900" />
		<path
   id="imagebot_202"
   d="m -53095.148,-88372.703 c -9.895,6.602 -38.254,-3.258 -51.906,0.258 -13.656,3.516 -41.707,22.406 -56.672,20.219 -14.965,-2.164 -22.512,-19.547 -35.09,-25.016 -12.578,-5.445 -34.891,-4.703 -40.742,-12.867 -5.851,-8.164 7.723,-27.297 11.238,-35.781 3.516,-8.516 -6.695,-24.07 3.082,-31.117 9.77,-7.039 39.449,-5.617 54.008,-7.961 14.555,-2.328 30.918,-13.531 46.148,-12.102 15.234,1.461 30.117,15.547 42.777,20.688 12.652,5.133 36.844,10.836 43.574,18.914 6.727,8.102 -10.094,17.398 -11.762,26.219 -1.671,8.819 5.235,31.944 -4.655,38.546 z"
   inkscape:connector-curvature="0"
   style="fill:#fcaf3e" />
	</g>
	
		<g
   id="imagebot_203"
   transform="matrix(0.13719391,-0.0205898,0.01572753,0.06727096,5180.7208,1204.3375)">
		<path
   id="imagebot_204"
   d="m -35916.785,-118520.31 c -8.375,4.67 -29.031,0.4 -40.758,1.96 -12.109,1.57 -25.18,14.55 -37.453,12.65 -11.875,-1.82 -19.473,-16.29 -28.152,-20.8 -8.957,-4.69 -27.16,-3.76 -31.063,-10.06 -3.773,-6.07 12.359,-15.93 15.602,-22.08 3.348,-6.38 -5.273,-17.1 3.762,-21.64 8.73,-4.39 28.02,1.72 39.598,0 11.949,-1.75 24.707,-12.3 37.078,-10.75 11.969,1.52 19.859,12.36 28.645,16.7 9.055,4.51 33.469,5.83 37.621,11.94 4.02,5.94 -20.555,12.91 -23.023,19.12 -2.564,6.45 6.787,18.13 -1.857,22.95 z"
   inkscape:connector-curvature="0"
   style="fill:#ce5c00" />
		<path
   id="imagebot_205"
   d="m -35806.23,-118586.23 c -8.547,4.58 -33.047,-2.25 -44.844,0.18 -11.797,2.46 -36.031,15.57 -48.953,14.05 -12.922,-1.52 -19.445,-13.55 -30.313,-17.35 -10.871,-3.79 -30.141,-3.27 -35.191,-8.94 -5.051,-5.67 6.668,-18.92 9.707,-24.82 3.039,-5.91 -5.789,-16.69 2.656,-21.57 8.449,-4.9 34.09,-3.91 46.66,-5.52 12.57,-1.64 26.703,-9.42 39.863,-8.41 13.16,1.01 26.02,10.78 36.949,14.36 10.934,3.55 31.832,7.51 37.637,13.12 5.816,5.61 -8.711,12.05 -10.152,18.17 -1.441,6.12 4.52,22.14 -4.019,26.73 z"
   inkscape:connector-curvature="0"
   style="fill:#fcc916" />
		<path
   id="imagebot_206"
   d="m -36202.617,-118421.95 c -9.59,6.68 -36.738,-0.21 -50.32,3.15 -13.586,3.39 -37.199,19.59 -51.867,17.66 -14.672,-1.91 -23.098,-18.2 -35.09,-23.72 -11.996,-5.53 -35.375,-6.24 -40.914,-14.44 -5.535,-8.22 8.797,-24.83 11.859,-33.42 3.066,-8.61 -6.328,-23.88 3.191,-30.87 9.523,-6.96 37.461,-5.32 51.598,-7.93 14.133,-2.64 30.684,-14.07 45.512,-12.64 14.816,1.46 27.68,15.71 39.727,21.05 12.051,5.31 36.563,10.03 42.625,18.21 6.07,8.16 -10.234,18.67 -12.172,27.46 -1.946,8.78 5.448,28.78 -4.149,35.49 z"
   inkscape:connector-curvature="0"
   style="fill:#ad7fa8" />
		<path
   id="imagebot_207"
   d="m -36003.457,-118365.58 c -10.754,5.89 -31.305,6.94 -46.574,9 -15.281,2.06 -37.645,11.96 -52.684,9.54 -15.043,-2.43 -28.742,-14.31 -39.691,-19.99 -10.953,-5.67 -30.836,-11.44 -35.469,-19.19 -4.637,-7.74 10.266,-19.7 13.902,-27.39 3.637,-7.66 -0.555,-22.61 10.664,-28.15 11.215,-5.51 38.875,-2.12 53.449,-4.58 14.59,-2.46 28.711,-11.03 43.871,-9.03 15.176,2 28.797,14.07 39.699,19.99 10.902,5.91 39.477,8.83 44.426,16.38 4.938,7.58 -10.445,20.03 -14.531,27.58 -4.074,7.54 -6.308,19.96 -17.062,25.84 z"
   inkscape:connector-curvature="0"
   style="fill:#f57900" />
		<path
   id="imagebot_208"
   d="m -36164.391,-118106.3 c -13.695,8.53 -47.484,0.74 -66.668,3.55 -19.809,2.91 -41.188,26.47 -61.266,23.02 -19.434,-3.32 -31.859,-29.61 -46.055,-37.84 -14.656,-8.52 -44.438,-6.81 -50.816,-18.25 -6.188,-11.07 20.215,-29.01 25.52,-40.21 5.477,-11.56 -8.625,-31.06 6.141,-39.32 14.297,-7.99 45.852,3.11 64.785,0 19.555,-3.19 40.434,-22.37 60.656,-19.52 19.582,2.74 32.5,22.43 46.855,30.33 14.824,8.2 54.773,10.61 61.555,21.75 6.578,10.78 -33.621,23.42 -37.668,34.75 -4.187,11.7 11.106,32.96 -3.039,41.72 z"
   inkscape:connector-curvature="0"
   style="fill:#ce5c00" />
		<path
   id="imagebot_209"
   d="m -35956.773,-118228.02 c -11.332,6.7 -43.375,-0.21 -59.414,3.16 -16.031,3.37 -43.918,19.57 -61.234,17.66 -17.32,-1.9 -27.27,-18.18 -41.426,-23.71 -14.172,-5.53 -41.766,-6.25 -48.305,-14.47 -6.539,-8.21 10.383,-24.8 14,-33.39 3.621,-8.62 -7.473,-23.92 3.77,-30.87 11.246,-6.98 44.219,-5.31 60.914,-7.95 16.691,-2.64 36.227,-14.06 53.73,-12.62 17.492,1.46 32.68,15.69 46.91,21.04 14.227,5.3 43.16,10.01 50.32,18.21 7.164,8.18 -12.082,18.66 -14.371,27.45 -2.289,8.8 6.438,28.8 -4.894,35.49 z"
   inkscape:connector-curvature="0"
   style="fill:#3465a4" />
		<path
   id="imagebot_210"
   d="m -35764.258,-118130.45 c -13.563,7.4 -52.453,-3.63 -71.168,0.32 -18.719,3.94 -57.176,25.11 -77.695,22.67 -20.512,-2.45 -30.859,-21.9 -48.105,-28.06 -17.246,-6.11 -47.828,-5.28 -55.844,-14.44 -8.023,-9.13 10.578,-30.56 15.398,-40.09 4.816,-9.53 -9.18,-26.97 4.227,-34.86 13.402,-7.88 54.09,-6.28 74.039,-8.92 19.953,-2.63 42.387,-15.19 63.27,-13.56 20.887,1.6 41.297,17.41 58.648,23.15 17.344,5.77 50.516,12.15 59.734,21.24 9.223,9.07 -13.824,19.49 -16.121,29.36 -2.289,9.9 7.176,35.79 -6.383,43.19 z"
   inkscape:connector-curvature="0"
   style="fill:#fcaf3e" />
		<path
   id="imagebot_211"
   d="m -35478.398,-118143.84 c -16.25,10.44 -56.352,0.86 -79.113,4.32 -23.516,3.57 -48.887,32.54 -72.719,28.32 -23.063,-4.1 -37.816,-36.37 -54.652,-46.52 -17.398,-10.49 -52.73,-8.38 -60.316,-22.44 -7.332,-13.59 24,-35.62 30.293,-49.4 6.504,-14.21 -10.242,-38.15 7.289,-48.32 16.969,-9.82 54.41,3.86 76.883,0 23.215,-3.92 47.984,-27.5 71.984,-24.01 23.246,3.37 38.574,27.57 55.609,37.32 17.598,10.03 64.996,13 73.059,26.68 7.797,13.28 -39.906,28.79 -44.711,42.7 -4.97,14.39 13.187,40.5 -3.606,51.31 z"
   inkscape:connector-curvature="0"
   style="fill:#cc0000" />
		<path
   id="imagebot_212"
   d="m -35713.688,-117851.75 c -15.813,8.72 -61.145,-4.31 -82.965,0.33 -21.832,4.67 -66.664,29.62 -90.574,26.72 -23.922,-2.89 -35.992,-25.8 -56.09,-33.03 -20.102,-7.22 -55.762,-6.23 -65.117,-17.02 -9.34,-10.79 12.344,-36 17.957,-47.23 5.629,-11.22 -10.695,-31.75 4.934,-41.05 15.625,-9.31 63.055,-7.42 86.324,-10.51 23.262,-3.1 49.406,-17.89 73.754,-15.98 24.352,1.9 48.145,20.51 68.367,27.28 20.227,6.8 58.898,14.31 69.652,25.01 10.746,10.69 -16.129,22.96 -18.801,34.6 -2.672,11.64 8.364,42.16 -7.441,50.88 z"
   inkscape:connector-curvature="0"
   style="fill:#fcaf3e" />
		<path
   id="imagebot_213"
   d="m -35177.77,-117944.49 c -14.973,9.41 -57.324,-0.28 -78.527,4.47 -21.195,4.72 -58.043,27.47 -80.941,24.79 -22.883,-2.68 -36.027,-25.54 -54.75,-33.31 -18.727,-7.76 -55.199,-8.76 -63.84,-20.32 -8.637,-11.53 13.734,-34.85 18.504,-46.91 4.789,-12.1 -9.871,-33.6 4.984,-43.37 14.863,-9.79 58.441,-7.45 80.504,-11.16 22.066,-3.69 47.895,-19.77 71.016,-17.72 23.129,2.03 43.203,22.02 62.004,29.52 18.801,7.5 57.043,14.09 66.516,25.59 9.461,11.49 -15.977,26.23 -19,38.57 -3.04,12.37 8.503,40.46 -6.47,49.85 z"
   inkscape:connector-curvature="0"
   style="fill:#ad7fa8" />
		<path
   id="imagebot_214"
   d="m -35375.414,-117814.93 c -18.32,10.3 -53.316,12.16 -79.328,15.78 -26.023,3.63 -64.113,20.94 -89.73,16.7 -25.617,-4.21 -48.949,-25.09 -67.602,-35 -18.656,-9.93 -52.512,-20.03 -60.406,-33.62 -7.894,-13.59 17.484,-34.54 23.68,-47.98 6.195,-13.43 -0.938,-39.65 18.164,-49.31 19.105,-9.69 66.203,-3.75 91.043,-8.08 24.832,-4.33 48.895,-19.32 74.719,-15.83 25.828,3.52 49.035,24.65 67.605,35.03 18.574,10.36 67.23,15.47 75.648,28.73 8.422,13.27 -17.777,35.1 -24.73,48.32 -6.958,13.24 -10.739,34.92 -29.063,45.26 z"
   inkscape:connector-curvature="0"
   style="fill:#f57900" />
		<path
   id="imagebot_215"
   d="m -35735.035,-118424.35 c -13.387,6.99 -51.77,-3.48 -70.258,0.26 -18.488,3.73 -56.445,23.75 -76.695,21.45 -20.262,-2.31 -30.477,-20.71 -47.496,-26.53 -17.031,-5.79 -47.227,-4.99 -55.137,-13.65 -7.918,-8.67 10.445,-28.91 15.203,-37.95 4.754,-8.99 -9.055,-25.5 4.168,-32.95 13.23,-7.47 53.402,-5.95 73.102,-8.43 19.695,-2.47 41.84,-14.36 62.461,-12.84 20.621,1.55 40.766,16.48 57.891,21.92 17.129,5.45 49.879,11.49 58.98,20.06 9.102,8.59 -13.652,18.44 -15.918,27.79 -2.254,9.35 7.089,33.84 -6.301,40.87 z"
   inkscape:connector-curvature="0"
   style="fill:#fcc916" />
		<path
   id="imagebot_216"
   d="m -36256.363,-118614.49 c -10.957,5.97 -37.977,0.51 -53.324,2.49 -15.852,2.03 -32.953,18.6 -49.004,16.19 -15.551,-2.35 -25.492,-20.82 -36.84,-26.61 -11.727,-6 -35.543,-4.78 -40.645,-12.82 -4.941,-7.78 16.176,-20.37 20.41,-28.24 4.391,-8.13 -6.895,-21.82 4.914,-27.62 11.438,-5.62 36.672,2.19 51.82,0 15.645,-2.24 32.336,-15.71 48.516,-13.72 15.66,1.92 25.988,15.76 37.473,21.34 11.863,5.72 43.816,7.43 49.238,15.24 5.258,7.6 -26.891,16.45 -30.133,24.43 -3.347,8.21 8.895,23.14 -2.425,29.31 z"
   inkscape:connector-curvature="0"
   style="fill:#ce5c00" />
		<path
   id="imagebot_217"
   d="m -35525.633,-118008.92 c -17.16,7.75 -59.527,0.65 -83.566,3.22 -24.832,2.64 -51.629,24.18 -76.801,21.03 -24.359,-3.04 -39.934,-27.03 -57.723,-34.57 -18.379,-7.77 -55.699,-6.21 -63.707,-16.65 -7.746,-10.1 25.352,-26.47 31.988,-36.69 6.879,-10.58 -10.813,-28.37 7.703,-35.91 17.918,-7.29 57.473,2.84 81.199,0 24.523,-2.92 50.684,-20.43 76.047,-17.84 24.543,2.49 40.73,20.49 58.723,27.7 18.59,7.49 68.66,9.69 77.172,19.85 8.227,9.87 -42.152,21.39 -47.23,31.73 -5.246,10.68 13.926,30.08 -3.805,38.1 z"
   inkscape:connector-curvature="0"
   style="fill:#ce5c00" />
		<path
   id="imagebot_218"
   d="m -35924.223,-118023.03 c -13.141,8.69 -45.586,0.73 -63.996,3.61 -19.02,2.97 -39.551,27.08 -58.816,23.54 -18.66,-3.39 -30.582,-30.26 -44.207,-38.7 -14.078,-8.72 -42.66,-6.96 -48.785,-18.68 -5.934,-11.31 19.402,-29.65 24.504,-41.1 5.258,-11.86 -8.289,-31.77 5.891,-40.24 13.723,-8.17 44.012,3.19 62.188,0.1 18.777,-3.29 38.809,-22.9 58.234,-20.01 18.797,2.82 31.191,22.96 44.969,31.07 14.238,8.36 52.586,10.84 59.094,22.24 6.313,11.02 -32.27,23.94 -36.16,35.53 -4.021,11.95 10.67,33.7 -2.916,42.69 z"
   inkscape:connector-curvature="0"
   style="fill:#f57900" />
		<path
   id="imagebot_219"
   d="m -35663.859,-118272.64 c -13.738,8.39 -52.629,-0.26 -72.09,3.98 -19.465,4.23 -53.297,24.59 -74.313,22.2 -21.012,-2.43 -33.082,-22.88 -50.266,-29.82 -17.184,-6.95 -50.68,-7.85 -58.605,-18.17 -7.934,-10.32 12.598,-31.16 16.984,-41.98 4.391,-10.8 -9.074,-30.02 4.57,-38.76 13.648,-8.77 53.664,-6.69 73.922,-9.98 20.254,-3.32 43.965,-17.67 65.199,-15.87 21.23,1.83 39.656,19.72 56.918,26.42 17.262,6.71 52.375,12.61 61.07,22.88 8.688,10.29 -14.664,23.47 -17.445,34.52 -2.784,11.06 7.806,36.16 -5.944,44.58 z"
   inkscape:connector-curvature="0"
   style="fill:#ad7fa8" />
		<path
   id="imagebot_220"
   d="m -36142.508,-118523.87 c -10.762,5.89 -31.305,6.97 -46.582,9.03 -15.277,2.06 -37.645,11.93 -52.68,9.54 -15.039,-2.43 -28.742,-14.34 -39.699,-19.99 -10.949,-5.67 -30.824,-11.44 -35.461,-19.19 -4.633,-7.77 10.262,-19.73 13.902,-27.39 3.64,-7.65 -0.551,-22.64 10.66,-28.15 11.227,-5.53 38.871,-2.13 53.457,-4.6 14.582,-2.47 28.711,-11.04 43.871,-9.04 15.164,2.03 28.797,14.07 39.691,19.98 10.91,5.93 39.477,8.83 44.422,16.41 4.945,7.56 -10.445,20.03 -14.527,27.58 -4.073,7.55 -6.3,19.94 -17.054,25.82 z"
   inkscape:connector-curvature="0"
   style="fill:#f57900" />
		<path
   id="imagebot_221"
   d="m -36173.953,-118300.12 c -9.895,6.61 -38.254,-3.26 -51.906,0.25 -13.656,3.52 -41.703,22.43 -56.672,20.23 -14.969,-2.17 -22.52,-19.52 -35.094,-25 -12.578,-5.48 -34.887,-4.73 -40.738,-12.91 -5.852,-8.14 7.727,-27.27 11.234,-35.78 3.523,-8.51 -6.688,-24.05 3.086,-31.08 9.77,-7.05 39.453,-5.64 54.008,-7.97 14.555,-2.34 30.914,-13.53 46.145,-12.1 15.238,1.45 30.125,15.53 42.773,20.68 12.656,5.14 36.855,10.84 43.586,18.94 6.715,8.1 -10.094,17.38 -11.758,26.19 -1.684,8.83 5.226,31.94 -4.664,38.55 z"
   inkscape:connector-curvature="0"
   style="fill:#fcaf3e" />
	</g>
	<g
   id="imagebot_241"
   transform="matrix(1,0,0,-1,4643.17,3120.7815)">
		<path
   id="imagebot_242"
   d="m -7413.481,9073.085 c 0.016,8.994 -13.404,16.291 -29.973,16.301 -16.568,0.01 -30.012,-7.277 -30.027,-16.271 0,-0.01 0,-0.02 0,-0.029 -0.016,-8.994 13.402,-16.293 29.971,-16.301 16.568,-0.01 30.014,7.275 30.029,16.27 0,0.01 0,0.018 0,0.03 z"
   inkscape:connector-curvature="0"
   style="fill:#ad7fa8" />
		<path
   id="imagebot_243"
   d="m -7532.532,8913.655 c -1.719,1.158 -5.959,0.1 -8.367,0.48 -2.486,0.396 -5.17,3.607 -7.689,3.137 -2.439,-0.453 -3.999,-4.029 -5.78,-5.154 -1.841,-1.16 -5.577,-0.928 -6.379,-2.484 -0.775,-1.508 2.538,-3.949 3.204,-5.475 0.688,-1.576 -1.084,-4.23 0.771,-5.354 1.794,-1.088 5.755,0.424 8.131,0 2.455,-0.434 5.074,-3.047 7.614,-2.66 2.457,0.373 4.078,3.055 5.88,4.135 1.86,1.113 6.874,1.441 7.727,2.959 0.825,1.469 -4.221,3.189 -4.729,4.73 -0.527,1.594 1.393,4.489 -0.383,5.684 z"
   inkscape:connector-curvature="0"
   style="fill:#ce5c00" />
		<path
   id="imagebot_244"
   d="m -7581.347,8950.212 c -2.155,1.18 -6.271,1.395 -9.333,1.807 -3.061,0.414 -7.542,2.396 -10.556,1.912 -3.014,-0.484 -5.759,-2.869 -7.953,-4.006 -2.195,-1.135 -6.178,-2.289 -7.106,-3.844 -0.929,-1.557 2.057,-3.951 2.786,-5.486 0.729,-1.535 -0.111,-4.535 2.136,-5.641 2.248,-1.107 7.788,-0.428 10.711,-0.922 2.922,-0.494 5.753,-2.213 8.791,-1.811 3.038,0.402 5.769,2.818 7.953,4.004 2.184,1.186 7.91,1.77 8.9,3.287 0.991,1.516 -2.092,4.012 -2.91,5.525 -0.817,1.515 -1.262,3.997 -3.419,5.175 z"
   inkscape:connector-curvature="0"
   style="fill:#f57900" />
		<path
   id="imagebot_245"
   d="m -7497.3,8921.388 c -1.713,0.916 -6.621,-0.453 -8.984,0.037 -2.364,0.488 -7.219,3.115 -9.809,2.811 -2.591,-0.305 -3.897,-2.717 -6.074,-3.477 -2.178,-0.76 -6.039,-0.656 -7.052,-1.791 -1.013,-1.135 1.337,-3.791 1.944,-4.973 0.609,-1.182 -1.158,-3.344 0.534,-4.322 1.692,-0.978 6.829,-0.781 9.349,-1.105 2.519,-0.326 5.351,-1.885 7.987,-1.682 2.638,0.201 5.214,2.158 7.403,2.871 2.19,0.715 6.379,1.508 7.543,2.633 1.164,1.125 -1.746,2.416 -2.035,3.643 -0.289,1.224 0.906,4.437 -0.806,5.355 z"
   inkscape:connector-curvature="0"
   style="fill:#fcc916" />
		<path
   id="imagebot_246"
   d="m -7545.958,8934.062 c -1.922,1.34 -7.361,-0.041 -10.083,0.635 -2.722,0.676 -7.454,3.92 -10.394,3.537 -2.939,-0.381 -4.627,-3.643 -7.03,-4.752 -2.404,-1.107 -7.088,-1.252 -8.197,-2.896 -1.109,-1.646 1.763,-4.973 2.376,-6.695 0.613,-1.722 -1.269,-4.787 0.64,-6.184 1.909,-1.397 7.505,-1.064 10.338,-1.592 2.833,-0.528 6.149,-2.818 9.118,-2.527 2.97,0.291 5.547,3.145 7.962,4.211 2.415,1.068 7.325,2.012 8.541,3.65 1.216,1.638 -2.05,3.74 -2.439,5.502 -0.389,1.762 1.091,5.769 -0.832,7.111 z"
   inkscape:connector-curvature="0"
   style="fill:#ad7fa8" />
		<path
   id="imagebot_247"
   d="m -7552.063,8969.784 c -2.744,1.705 -9.515,0.146 -13.357,0.709 -3.97,0.582 -8.255,5.305 -12.276,4.615 -3.895,-0.668 -6.385,-5.932 -9.229,-7.584 -2.938,-1.709 -8.902,-1.365 -10.183,-3.656 -1.238,-2.219 4.052,-5.813 5.114,-8.057 1.098,-2.318 -1.729,-6.223 1.23,-7.877 2.865,-1.602 9.188,0.623 12.98,0 3.919,-0.639 8.102,-4.484 12.154,-3.916 3.924,0.551 6.512,4.498 9.388,6.084 2.972,1.639 10.975,2.123 12.335,4.355 1.316,2.16 -6.737,4.691 -7.549,6.961 -0.836,2.345 2.228,6.602 -0.607,8.362 z"
   inkscape:connector-curvature="0"
   style="fill:#ce5c00" />
		<path
   id="imagebot_248"
   d="m -7520.177,8958.347 c -2.27,1.342 -8.691,-0.041 -11.904,0.635 -3.214,0.676 -8.801,3.922 -12.271,3.539 -3.47,-0.383 -5.463,-3.645 -8.301,-4.754 -2.838,-1.107 -8.368,-1.25 -9.678,-2.896 -1.31,-1.646 2.081,-4.971 2.806,-6.693 0.725,-1.725 -1.498,-4.789 0.755,-6.186 2.253,-1.397 8.86,-1.064 12.205,-1.592 3.345,-0.528 7.26,-2.818 10.766,-2.527 3.506,0.291 6.549,3.145 9.4,4.213 2.85,1.066 8.648,2.01 10.083,3.648 1.436,1.639 -2.421,3.742 -2.88,5.504 -0.459,1.762 1.289,5.767 -0.981,7.109 z"
   inkscape:connector-curvature="0"
   style="fill:#3465a4" />
		<path
   id="imagebot_249"
   d="m -7496.985,9004.616 c -2.718,1.484 -10.509,-0.73 -14.26,0.061 -3.752,0.791 -11.457,5.035 -15.567,4.543 -4.11,-0.49 -6.185,-4.389 -9.64,-5.617 -3.455,-1.228 -9.584,-1.061 -11.191,-2.895 -1.606,-1.836 2.121,-6.127 3.087,-8.037 0.966,-1.91 -1.839,-5.402 0.847,-6.984 2.686,-1.58 10.838,-1.26 14.836,-1.787 3.998,-0.525 8.493,-3.043 12.678,-2.717 4.186,0.324 8.273,3.486 11.75,4.641 3.477,1.155 10.123,2.436 11.971,4.254 1.848,1.818 -2.771,3.904 -3.23,5.885 -0.459,1.981 1.435,7.171 -1.281,8.653 z"
   inkscape:connector-curvature="0"
   style="fill:#fcaf3e" />
		<path
   id="imagebot_250"
   d="m -7448.612,9027.837 c -3.258,2.094 -11.293,0.178 -15.854,0.869 -4.711,0.715 -9.796,6.521 -14.57,5.672 -4.621,-0.822 -7.576,-7.287 -10.951,-9.32 -3.486,-2.098 -10.566,-1.678 -12.084,-4.492 -1.471,-2.727 4.807,-7.141 6.068,-9.9 1.303,-2.85 -2.051,-7.646 1.461,-9.68 3.399,-1.969 10.902,0.768 15.404,0.01 4.652,-0.787 9.615,-5.512 14.426,-4.813 4.656,0.676 7.728,5.525 11.141,7.477 3.526,2.014 13.025,2.607 14.639,5.352 1.563,2.656 -7.995,5.766 -8.959,8.553 -0.995,2.879 2.642,8.114 -0.721,10.276 z"
   inkscape:connector-curvature="0"
   style="fill:#cc0000" />
		<path
   id="imagebot_251"
   d="m -7494.948,9064.505 c -3.168,1.746 -12.251,-0.861 -16.625,0.07 -4.373,0.932 -13.355,5.932 -18.148,5.352 -4.792,-0.578 -7.209,-5.17 -11.238,-6.617 -4.027,-1.445 -11.173,-1.248 -13.046,-3.41 -1.874,-2.16 2.472,-7.215 3.599,-9.465 1.125,-2.25 -2.145,-6.363 0.986,-8.227 3.131,-1.864 12.635,-1.486 17.297,-2.105 4.66,-0.619 9.9,-3.586 14.779,-3.201 4.879,0.383 9.646,4.107 13.698,5.467 4.053,1.361 11.802,2.869 13.956,5.01 2.153,2.143 -3.23,4.602 -3.767,6.934 -0.535,2.331 1.677,8.446 -1.491,10.192 z"
   inkscape:connector-curvature="0"
   style="fill:#fcaf3e" />
		<path
   id="imagebot_252"
   d="m -7415.093,9082.358 c -3,1.885 -11.486,-0.057 -15.734,0.893 -4.247,0.949 -11.631,5.508 -16.218,4.971 -4.587,-0.537 -7.22,-5.119 -10.971,-6.676 -3.751,-1.557 -11.06,-1.758 -12.791,-4.072 -1.731,-2.313 2.75,-6.982 3.708,-9.402 0.957,-2.42 -1.979,-6.727 0.998,-8.688 2.977,-1.961 11.711,-1.496 16.131,-2.236 4.42,-0.742 9.596,-3.959 14.229,-3.551 4.635,0.408 8.656,4.416 12.424,5.916 3.768,1.5 11.43,2.826 13.327,5.129 1.897,2.301 -3.199,5.254 -3.807,7.729 -0.607,2.476 1.704,8.103 -1.296,9.987 z"
   inkscape:connector-curvature="0"
   style="fill:#ad7fa8" />
		<path
   id="imagebot_253"
   d="m -7453.075,9088.075 c -3.672,2.064 -10.684,2.439 -15.896,3.164 -5.212,0.725 -12.846,4.195 -17.979,3.348 -5.133,-0.847 -9.809,-5.025 -13.546,-7.016 -3.737,-1.991 -10.521,-4.012 -12.103,-6.738 -1.582,-2.725 3.504,-6.92 4.744,-9.609 1.241,-2.689 -0.189,-7.945 3.639,-9.885 3.828,-1.94 13.266,-0.746 18.242,-1.613 4.976,-0.867 9.797,-3.877 14.973,-3.172 5.175,0.703 9.825,4.938 13.546,7.016 3.72,2.078 13.472,3.1 15.158,5.756 1.686,2.656 -3.563,7.031 -4.956,9.684 -1.393,2.651 -2.151,6.999 -5.822,9.065 z"
   inkscape:connector-curvature="0"
   style="fill:#f57900" />
		<path
   id="imagebot_254"
   d="m -7471.698,8974.735 c -2.683,1.445 -10.375,-0.713 -14.078,0.059 -3.703,0.77 -11.31,4.906 -15.368,4.428 -4.058,-0.478 -6.106,-4.279 -9.517,-5.475 -3.412,-1.197 -9.462,-1.035 -11.049,-2.822 -1.586,-1.787 2.094,-5.971 3.047,-7.832 0.954,-1.861 -1.814,-5.266 0.836,-6.807 2.652,-1.541 10.7,-1.229 14.647,-1.742 3.946,-0.512 8.384,-2.967 12.516,-2.648 4.132,0.316 8.168,3.398 11.601,4.523 3.432,1.125 9.993,2.373 11.817,4.145 1.823,1.771 -2.735,3.807 -3.188,5.736 -0.455,1.931 1.417,6.99 -1.264,8.435 z"
   inkscape:connector-curvature="0"
   style="fill:#fcc916" />
		<path
   id="imagebot_255"
   d="m -7606.114,8909.247 c -2.195,1.195 -7.611,0.102 -10.685,0.496 -3.175,0.408 -6.603,3.729 -9.819,3.242 -3.115,-0.469 -5.106,-4.166 -7.381,-5.328 -2.35,-1.199 -7.122,-0.959 -8.145,-2.568 -0.991,-1.557 3.24,-4.082 4.09,-5.658 0.879,-1.629 -1.383,-4.373 0.984,-5.535 2.291,-1.125 7.348,0.439 10.383,0 3.135,-0.449 6.479,-3.15 9.722,-2.752 3.139,0.389 5.208,3.16 7.509,4.275 2.377,1.15 8.777,1.49 9.866,3.059 1.053,1.518 -5.39,3.297 -6.038,4.891 -0.671,1.646 1.78,4.638 -0.486,5.874 z"
   inkscape:connector-curvature="0"
   style="fill:#ce5c00" />
		<path
   id="imagebot_256"
   d="m -7412.738,9045.13 c -3.44,1.82 -11.927,0.154 -16.743,0.756 -4.977,0.621 -10.348,5.67 -15.391,4.932 -4.881,-0.715 -8.002,-6.338 -11.566,-8.104 -3.683,-1.826 -11.16,-1.461 -12.764,-3.908 -1.553,-2.371 5.078,-6.211 6.41,-8.609 1.376,-2.479 -2.167,-6.65 1.543,-8.418 3.59,-1.711 11.516,0.666 16.271,0 4.913,-0.684 10.155,-4.793 15.235,-4.184 4.919,0.588 8.162,4.805 11.768,6.5 3.725,1.752 13.758,2.27 15.463,4.654 1.65,2.311 -8.446,5.016 -9.463,7.439 -1.051,2.506 2.79,7.057 -0.763,8.938 z"
   inkscape:connector-curvature="0"
   style="fill:#ce5c00" />
		<path
   id="imagebot_257"
   d="m -7514.464,9031.804 c -2.635,1.744 -9.135,0.15 -12.823,0.725 -3.811,0.596 -7.925,5.428 -11.786,4.721 -3.737,-0.684 -6.128,-6.066 -8.857,-7.758 -2.82,-1.746 -8.547,-1.396 -9.775,-3.74 -1.189,-2.268 3.889,-5.943 4.909,-8.24 1.054,-2.371 -1.659,-6.365 1.181,-8.057 2.75,-1.639 8.819,0.639 12.461,0 3.763,-0.654 7.777,-4.588 11.668,-4.006 3.768,0.564 6.252,4.6 9.012,6.223 2.854,1.678 10.536,2.172 11.842,4.455 1.264,2.211 -6.468,4.799 -7.246,7.121 -0.807,2.397 2.135,6.753 -0.586,8.552 z"
   inkscape:connector-curvature="0"
   style="fill:#f57900" />
		<path
   id="imagebot_258"
   d="m -7572.704,8997.845 c -2.479,1.729 -9.49,-0.053 -12.999,0.818 -3.509,0.871 -9.608,5.055 -13.398,4.563 -3.789,-0.494 -5.964,-4.697 -9.063,-6.127 -3.099,-1.43 -9.137,-1.613 -10.567,-3.736 -1.43,-2.121 2.272,-6.408 3.063,-8.629 0.791,-2.221 -1.635,-6.172 0.824,-7.973 2.46,-1.799 9.675,-1.371 13.327,-2.051 3.651,-0.682 7.927,-3.635 11.755,-3.26 3.828,0.375 7.151,4.055 10.264,5.43 3.113,1.377 9.443,2.594 11.011,4.705 1.567,2.113 -2.644,4.824 -3.146,7.094 -0.503,2.271 1.407,7.437 -1.071,9.166 z"
   inkscape:connector-curvature="0"
   style="fill:#ad7fa8" />
		<path
   id="imagebot_259"
   d="m -7560.632,8908.784 c -2.156,1.178 -6.272,1.393 -9.334,1.807 -3.061,0.412 -7.542,2.395 -10.556,1.91 -3.013,-0.484 -5.759,-2.869 -7.953,-4.004 -2.194,-1.137 -6.178,-2.291 -7.106,-3.846 -0.928,-1.555 2.057,-3.949 2.786,-5.484 0.729,-1.535 -0.111,-4.535 2.136,-5.643 2.248,-1.105 7.789,-0.426 10.711,-0.92 2.922,-0.496 5.753,-2.213 8.791,-1.811 3.039,0.4 5.77,2.818 7.953,4.004 2.186,1.186 7.91,1.77 8.9,3.285 0.991,1.516 -2.092,4.014 -2.91,5.527 -0.817,1.515 -1.263,3.997 -3.418,5.175 z"
   inkscape:connector-curvature="0"
   style="fill:#f57900" />
		<path
   id="imagebot_260"
   d="m -7475.444,8945.519 c -1.982,1.322 -7.666,-0.652 -10.402,0.053 -2.736,0.707 -8.355,4.492 -11.354,4.055 -2.999,-0.439 -4.511,-3.916 -7.031,-5.012 -2.52,-1.096 -6.991,-0.947 -8.163,-2.584 -1.172,-1.637 1.547,-5.465 2.252,-7.17 0.704,-1.703 -1.342,-4.82 0.617,-6.23 1.959,-1.41 7.905,-1.125 10.822,-1.594 2.916,-0.471 6.194,-2.717 9.246,-2.426 3.053,0.291 6.035,3.111 8.57,4.141 2.536,1.031 7.385,2.174 8.732,3.795 1.347,1.621 -2.021,3.484 -2.356,5.252 -0.336,1.764 1.048,6.397 -0.933,7.72 z"
   inkscape:connector-curvature="0"
   style="fill:#fcaf3e" />
	</g>
</g>
</svg>