<?xml version="1.0" encoding="UTF-8" standalone="no"?>
<!-- Created with Inkscape (http://www.inkscape.org/) -->

<svg
   xmlns:dc="http://purl.org/dc/elements/1.1/"
   xmlns:cc="http://creativecommons.org/ns#"
   xmlns:rdf="http://www.w3.org/1999/02/22-rdf-syntax-ns#"
   xmlns:svg="http://www.w3.org/2000/svg"
   xmlns="http://www.w3.org/2000/svg"
   version="1.1"
   width="728"
   height="90"
   id="svg2995">
  <defs
     id="defs2997" />
  <metadata
     id="metadata3000">
    <rdf:RDF>
      <cc:Work
         rdf:about="">
        <dc:format>image/svg+xml</dc:format>
        <dc:type
           rdf:resource="http://purl.org/dc/dcmitype/StillImage" />
        <dc:title></dc:title>
      </cc:Work>
    </rdf:RDF>
  </metadata>
  <g
     id="layer1">
    <path
       d="M 75.999998,48.666668 53.005152,54.091013 44.437469,76.108763 32.172812,55.915579 8.5851281,54.571087 23.999999,36.666668 17.989692,13.817977 39.781264,22.945621 59.654373,10.168845 57.707434,33.714458 z"
       transform="matrix(0.74698606,0,0,0.70088575,0.70060833,32.236764)"
       id="path3007"
       style="fill:#ffff00;fill-rule:evenodd;stroke:#000000;stroke-width:1px;stroke-linecap:butt;stroke-linejoin:miter;stroke-opacity:1" />
    <path
       d="M 105.33333,39.333333 83.885365,51.893302 82.072786,76.682066 63.499758,60.165078 39.364125,66.101362 49.333333,43.333333 36.22927,22.213395 60.963607,24.658967 77.000484,5.6698435 82.317937,29.949319 z"
       transform="translate(14.666667,0)"
       id="path3011"
       style="fill:#ffff00;fill-rule:evenodd;stroke:#000000;stroke-width:1px;stroke-linecap:butt;stroke-linejoin:miter;stroke-opacity:1" />
    <path
       d="M 122.66667,55.333334 109.31271,34.277221 84.396628,33.340859 100.29558,14.133795 93.486622,-9.852162 l 23.180048,9.18549484 20.70792,-13.88777484 -1.5729,24.884012 19.60716,15.40284 -24.15215,6.193671 z"
       transform="translate(-8,36)"
       id="path3013"
       style="fill:#ffff00;fill-rule:evenodd;stroke:#000000;stroke-width:1px;stroke-linecap:butt;stroke-linejoin:miter;stroke-opacity:1" />
    <path
       d="m 202.66667,73.999999 -22.51052,-11.600172 -22.3175,11.967307 4.07629,-24.993421 -18.27807,-17.527103 25.02979,-3.846612 11.02104,-22.799653 11.39297,22.616084 25.08945,3.436143 -17.98855,17.824121 z"
       id="path3015"
       style="fill:#ffff00;fill-rule:evenodd;stroke:#000000;stroke-width:1px;stroke-linecap:butt;stroke-linejoin:miter;stroke-opacity:1" />
    <path
       d="m 294.66666,68.666668 -20.16965,-4.856407 -15.43508,13.862104 -1.61404,-20.683189 -17.95335,-10.396002 19.17212,-7.926506 4.33929,-20.287187 13.46307,15.784339 20.63518,-2.142169 -10.85149,17.681764 z"
       id="path3017"
       style="fill:#ffff00;fill-rule:evenodd;stroke:#000000;stroke-width:1px;stroke-linecap:butt;stroke-linejoin:miter;stroke-opacity:1" />
    <path
       d="m 481.33333,55.333331 -12.64217,-5.609294 -11.78784,7.23432 1.42811,-13.756784 -10.52289,-8.975376 13.52479,-2.892865 5.28434,-12.781408 6.93067,11.968895 13.78879,1.076032 -9.2414,10.290049 z"
       id="path3021"
       style="fill:#ffff00;fill-rule:evenodd;stroke:#000000;stroke-width:1px;stroke-linecap:butt;stroke-linejoin:miter;stroke-opacity:1" />
    <path
       d="m 582.66669,55.333332 -18.99408,-2.47444 -12.80642,14.244068 -3.51616,-18.829085 -17.50431,-7.777969 16.82097,-9.162574 1.98815,-19.051118 13.91209,13.166303 18.73307,-3.996269 -8.22283,17.299796 z"
       id="path3023"
       style="fill:#ffff00;fill-rule:evenodd;stroke:#000000;stroke-width:1px;stroke-linecap:butt;stroke-linejoin:miter;stroke-opacity:1" />
    <path
       d="m 671.99998,59.333335 -33.2756,2.599148 -16.72333,28.885141 -12.75466,-30.843795 -32.6392,-6.978833 25.39279,-21.661661 -3.4488,-33.1982972 28.44826,17.4561522 30.50772,-13.5388431 -7.81079,32.4501571 z"
       id="path3027"
       style="fill:#ffff00;fill-rule:evenodd;stroke:#000000;stroke-width:1px;stroke-linecap:butt;stroke-linejoin:miter;stroke-opacity:1" />
    <path
       d="M 410.66668,64.666669 386.1455,58.995723 367.57249,75.980735 365.38842,50.907294 343.49533,38.491961 366.66668,28.666668 371.70902,4.0085583 388.21377,23.009634 413.2232,20.185417 400.25235,41.754021 z"
       id="path3029"
       style="fill:#ffff00;fill-rule:evenodd;stroke:#000000;stroke-width:1px;stroke-linecap:butt;stroke-linejoin:miter;stroke-opacity:1" />
    <path
       d="m 298.66666,36.666668 -5.486,-11.115842 -12.26706,-1.782508 8.87653,-8.652477 -2.09547,-12.2174923 10.972,5.7683173 10.97199,-5.7683179 -2.09547,12.2174939 8.87653,8.652475 -12.26706,1.782509 z"
       id="path3031"
       style="fill:#ffff00;fill-rule:evenodd;stroke:#000000;stroke-width:1px;stroke-linecap:butt;stroke-linejoin:miter;stroke-opacity:1" />
    <path
       d="M 321.33333,74.000001 303.92723,70.741846 291.37546,83.233479 289.09537,65.672468 273.33641,57.595147 289.33333,50 l 2.8122,-17.483692 12.16674,12.866952 17.497,-2.728194 -8.47747,15.54736 z"
       id="path3033"
       style="fill:#ffff00;fill-rule:evenodd;stroke:#000000;stroke-width:1px;stroke-linecap:butt;stroke-linejoin:miter;stroke-opacity:1" />
    <path
       d="m 505.33334,72.666667 -17.39582,-5.237989 -14.17689,11.36077 -0.39398,-18.163041 -15.18564,-9.972353 17.15233,-5.987388 4.79165,-17.524023 10.99471,14.462633 18.14704,-0.85809 -10.35723,14.925787 z"
       id="path3035"
       style="fill:#ffff00;fill-rule:evenodd;stroke:#000000;stroke-width:1px;stroke-linecap:butt;stroke-linejoin:miter;stroke-opacity:1" />
    <path
       d="m 427.99999,80.666665 -20.1491,-8.816075 -18.6853,11.600378 2.15817,-21.887249 -16.80669,-14.186065 21.48292,-4.710988 8.2982,-20.367849 11.119,18.975697 21.93526,1.598043 -14.611,16.438614 z"
       id="path3037"
       style="fill:#ffff00;fill-rule:evenodd;stroke:#000000;stroke-width:1px;stroke-linecap:butt;stroke-linejoin:miter;stroke-opacity:1" />
    <path
       d="m 690.66669,24.666668 -4.73311,-3.588361 -5.63928,1.864723 1.95013,-5.610317 -3.51609,-4.78704 5.93835,0.120995 3.46621,-4.8232772 1.71998,5.6850962 5.65833,1.806091 -4.87535,3.392587 z"
       id="path3039"
       style="fill:#ffff00;fill-rule:evenodd;stroke:#000000;stroke-width:1px;stroke-linecap:butt;stroke-linejoin:miter;stroke-opacity:1" />
    <path
       d="m 694.66669,63.333334 -9.95055,9.847795 2.47126,13.779887 -12.44069,-6.420394 -12.34179,6.608529 2.26177,-13.815818 -10.09891,-9.695591 13.83855,-2.118251 6.10032,-12.600734 6.29092,12.506667 z"
       id="path3041"
       style="fill:#ffff00;fill-rule:evenodd;stroke:#000000;stroke-width:1px;stroke-linecap:butt;stroke-linejoin:miter;stroke-opacity:1" />
    <text
       x="185.33333"
       y="62.000004"
       id="text3043"
       xml:space="preserve"
       style="font-size:40px;font-style:normal;font-weight:normal;line-height:138.99999857%;letter-spacing:0px;word-spacing:0px;fill:#d35f5f;fill-opacity:1;stroke:none;font-family:Sans"><tspan
         x="185.33333"
         y="62.000004"
         id="tspan3045"
         style="font-size:56px;font-style:oblique;font-weight:bold;line-height:138.99999857%;letter-spacing:0.02px;fill:#d35f5f;-inkscape-font-specification:Sans Bold Oblique">FANTASTIC!</tspan></text>
  </g>
</svg>
